<?xml version="1.0" encoding="UTF-8" standalone="no"?>
<!-- Created with Inkscape (http://www.inkscape.org/) -->

<svg
        version="1.1"
        id="svg2"
        xml:space="preserve"
        width="843.83069"
        height="174.41791"
        viewBox="0 0 843.83069 174.41791"
        sodipodi:docname="4874d6eca7957a5928cd343b9aaad71b.eps"
        xmlns:inkscape="http://www.inkscape.org/namespaces/inkscape"
        xmlns:sodipodi="http://sodipodi.sourceforge.net/DTD/sodipodi-0.dtd"
        xmlns="http://www.w3.org/2000/svg"
        xmlns:svg="http://www.w3.org/2000/svg"><defs
     id="defs6"><clipPath
       clipPathUnits="userSpaceOnUse"
       id="clipPath282"><path
         d="m 450.746,317.191 h 65.152 c 0,0 -66.574,143.672 57.024,221.387 0,0 -110.41,-77.715 -28.484,-220.691 h 87.839 C 657.52,298.27 715.793,246.301 709.77,187.352 702.152,112.422 610.559,81.2109 590.434,79.7813 c 0,0 -244.469,-6.9297 -242.653,249.1877 1.086,157.023 116.153,224.336 116.153,224.336 H 339.77 c 0,0 -75.618,-83.965 -70.043,-222.977 6.425,-161.398 155.32,-229.629 249.867,-253.0467 0,0 -261.86,41.5587 -270.391,259.6957 -5.117,132.246 63.559,216.328 63.559,216.328 H 204.516 c 0,0 -85.336,-136.903 -3.469,-294.446 81.926,-157.578 237.359,-191.5895 367.156,-191.5895 129.793,0 246.399,82.6095 236.68,259.5895 H 738.93 c 0,0 67.312,-143.66 -56.227,-221.39 0,0 110.352,77.73 28.488,220.707 h -87.898 c -25.184,19.562 -83.461,71.582 -77.434,130.539 7.618,74.93 99.207,106.14 119.336,107.566 0,0 244.465,6.934 242.649,-249.187 C 906.762,158.059 793.285,90.7617 793.285,90.7617 h 122.574 c 0,0 76.411,83.9573 70.84,222.9063 -6.484,161.465 -158.847,226.621 -250.664,253.113 0,0 261.067,-41.562 269.595,-259.652 C 1010.75,174.84 942.121,90.7617 942.121,90.7617 h 108.989 c 0,0 85.39,136.8863 3.47,294.4293 C 972.715,542.73 817.16,576.73 687.426,576.73 c -129.797,0 -246.403,-82.546 -236.68,-259.539"
         id="path280" /></clipPath><clipPath
        clipPathUnits="userSpaceOnUse"
        id="clipPath288"><path
         d="M 116.508,576.73 1136.45,582.074 1139.17,67.3281 119.18,61.9883 Z"
         id="path286" /></clipPath><linearGradient
        x1="0"
        y1="0"
        x2="1"
        y2="0"
        gradientUnits="userSpaceOnUse"
        gradientTransform="matrix(485.238,2.5414,-2.5414,485.238,661.829,322.209)"
        spreadMethod="pad"
        id="linearGradient294"><stop
         style="stop-opacity:1;stop-color:#d71e25"
         offset="0"
         id="stop290" /><stop
        style="stop-opacity:1;stop-color:#ab1c22"
        offset="1"
        id="stop292" /></linearGradient><clipPath
        clipPathUnits="userSpaceOnUse"
        id="clipPath304"><path
         d="m 456.258,399.574 h 41.789 c -1.024,45.489 13.476,100.403 74.875,139.004 0,0 -68.68,-48.32 -57.539,-139.004 h 42.984 c -9.097,17.571 -14.554,36.953 -12.508,57.141 7.618,74.93 99.207,106.14 119.336,107.566 0,0 33.887,0.969 76.352,-11.082 v 11.992 c -1.875,0.508 -3.695,1.082 -5.512,1.59 0,0 1.934,-0.281 5.512,-1.023 v 8.871 c -18.363,1.535 -36.5,2.101 -54.121,2.101 -107.629,0 -206.207,-56.792 -231.168,-177.156 M 339.77,553.305 c 0,0 -50.942,-56.563 -66.125,-153.731 h 83.007 c 27.121,106.828 107.282,153.731 107.282,153.731 z m -135.254,0 c 0,0 -39.571,-63.446 -38.942,-153.731 h 86.641 c 13.078,95.625 60.547,153.731 60.547,153.731 z"
         id="path302" /></clipPath><clipPath
        clipPathUnits="userSpaceOnUse"
        id="clipPath310"><path
         d="M 164.945,576.73 H 741.547 V 399.574 H 164.945 Z"
         id="path308" /></clipPath><linearGradient
        x1="0"
        y1="0"
        x2="1"
        y2="0"
        gradientUnits="userSpaceOnUse"
        gradientTransform="matrix(599.734,0,0,599.734,141.813,488.154)"
        spreadMethod="pad"
        id="linearGradient318"><stop
         style="stop-opacity:1;stop-color:#171817"
         offset="0"
         id="stop312" /><stop
        style="stop-opacity:1;stop-color:#6e1417"
        offset="0.828221"
        id="stop314" /><stop
        style="stop-opacity:1;stop-color:#d71e25"
        offset="1"
        id="stop316" /></linearGradient><clipPath
        clipPathUnits="userSpaceOnUse"
        id="clipPath328"><path
         d="M 293.379,235.16 C 340.281,140.559 446.254,95.4219 519.594,77.2813 c 0,0 -175.735,27.8597 -243.957,157.8787 H 214.461 C 299.121,97.8008 445.234,67.2695 568.203,67.2695 c 29.789,0 58.899,4.3907 85.906,13.1914 V 105.531 C 627.898,88.4805 600.438,80.4609 590.434,79.7813 c 0,0 -180.055,-5.1211 -229.973,155.3787 z"
         id="path326" /></clipPath><clipPath
        clipPathUnits="userSpaceOnUse"
        id="clipPath334"><path
         d="M 214.461,235.16 H 654.109 V 67.2695 H 214.461 Z"
         id="path332" /></clipPath><linearGradient
        x1="0"
        y1="0"
        x2="1"
        y2="0"
        gradientUnits="userSpaceOnUse"
        gradientTransform="matrix(418.01,0,0,418.01,235.895,151.22)"
        spreadMethod="pad"
        id="linearGradient342"><stop
         style="stop-opacity:1;stop-color:#f8db19"
         offset="0"
         id="stop336" /><stop
        style="stop-opacity:1;stop-color:#f8db19"
        offset="0.184049"
        id="stop338" /><stop
        style="stop-opacity:1;stop-color:#d71e25"
        offset="1"
        id="stop340" /></linearGradient><clipPath
        clipPathUnits="userSpaceOnUse"
        id="clipPath352"><path
         d="m 450.746,317.191 h 65.152 c 0,0 -66.574,143.672 57.024,221.387 0,0 -110.41,-77.715 -28.484,-220.691 h 87.839 C 657.52,298.27 715.793,246.301 709.77,187.352 702.152,112.422 610.559,81.2109 590.434,79.7813 c 0,0 -244.469,-6.9297 -242.653,249.1877 1.086,157.023 116.153,224.336 116.153,224.336 H 339.77 c 0,0 -75.618,-83.965 -70.043,-222.977 6.425,-161.398 155.32,-229.629 249.867,-253.0467 0,0 -261.86,41.5587 -270.391,259.6957 -5.117,132.246 63.559,216.328 63.559,216.328 H 204.516 c 0,0 -85.336,-136.903 -3.469,-294.446 81.926,-157.578 237.359,-191.5895 367.156,-191.5895 129.793,0 246.399,82.6095 236.68,259.5895 H 738.93 c 0,0 67.312,-143.66 -56.227,-221.39 0,0 110.352,77.73 28.488,220.707 h -87.898 c -25.184,19.562 -83.461,71.582 -77.434,130.539 7.618,74.93 99.207,106.14 119.336,107.566 0,0 244.465,6.934 242.649,-249.187 C 906.762,158.059 793.285,90.7617 793.285,90.7617 h 122.574 c 0,0 76.411,83.9573 70.84,222.9063 -6.484,161.465 -158.847,226.621 -250.664,253.113 0,0 261.067,-41.562 269.595,-259.652 C 1010.75,174.84 942.121,90.7617 942.121,90.7617 h 108.989 c 0,0 85.39,136.8863 3.47,294.4293 C 972.715,542.73 817.16,576.73 687.426,576.73 c -129.797,0 -246.403,-82.546 -236.68,-259.539"
         id="path350" /></clipPath></defs><sodipodi:namedview
        id="namedview4"
        pagecolor="#ffffff"
        bordercolor="#666666"
        borderopacity="1.0"
        inkscape:pageshadow="2"
        inkscape:pageopacity="0.0"
        inkscape:pagecheckerboard="0" /><g
        id="g8"
        inkscape:groupmode="layer"
        inkscape:label="ink_ext_XXXXXX"
        transform="matrix(1.3333333,0,0,-1.3333333,5.7308104e-5,174.41733)"><g
       id="g10"
       transform="scale(0.1)"><path
         d="m 3069.55,1147.09 h 15.55 c 33.02,0.29 52.53,12.73 52.53,69.95 0,58.13 -19.51,69.94 -52.75,69.94 h -15.33 z m -26.4,160.98 h 46.76 c 55.41,0 76.73,-30.59 76.73,-90.47 0,-75.48 -34.55,-91.59 -76.73,-91.59 h -46.76 v 182.06"
         style="fill:#040606;fill-opacity:1;fill-rule:nonzero;stroke:none"
         id="path12" /><path
        d="m 3261.85,1213.87 c 0,7.98 -4.68,22.17 -22.96,22.17 -19.5,0 -24.99,-16.57 -24.99,-22.17 z m 20.87,-86.51 c -10.29,-2.43 -17.69,-4.24 -31.38,-4.24 -38,0 -62.26,22.45 -62.26,71.81 0,53.83 35.06,59.6 51.17,59.6 30.6,0 45.41,-20.87 45.41,-50.39 v -6.04 h -72.83 c 0,-23.58 11.88,-56.49 46.14,-56.49 10.8,0 18.21,2.6 23.75,4.46 v -18.71"
        style="fill:#040606;fill-opacity:1;fill-rule:nonzero;stroke:none"
        id="path14" /><path
        d="m 3388.01,1152.97 h -0.52 c -4.01,-10.57 -14.3,-29.79 -39.85,-29.79 -29.07,0 -33.82,25.84 -33.82,41.39 v 87.07 h 23.75 V 1183 c 0,-23.46 0,-36.13 17.13,-36.13 19.57,0 33.31,26.41 33.31,51.45 v 53.32 h 23.69 v -125.58 h -23.69 v 26.91"
        style="fill:#040606;fill-opacity:1;fill-rule:nonzero;stroke:none"
        id="path16" /><path
        d="m 3518.85,1124.98 c -6.12,-1.29 -12.45,-1.86 -18.78,-1.86 -30.36,0 -37.71,13.46 -37.71,30.65 v 79.39 h -22.4 v 18.48 h 22.4 v 29.52 l 23.74,14.81 v -44.33 h 34.84 v -18.48 h -34.84 v -67.01 c 0,-11.36 1.64,-24.54 20.08,-24.54 4.24,0 9.21,0.79 12.67,1.87 v -18.5"
        style="fill:#040606;fill-opacity:1;fill-rule:nonzero;stroke:none"
        id="path18" /><path
        d="m 3587.15,1198.32 c 13.23,-8.14 29,-16.34 29,-37.2 0,-26.35 -18.99,-38 -47.22,-38 -17.12,0 -28.21,3.45 -33.75,5.04 v 20.8 c 2.38,-1.07 18.43,-7.35 31.66,-7.35 11.31,0 25.56,3.17 25.56,16.06 0,9.56 -11.58,14.81 -20.01,20.35 l -12.1,7.41 c -11.42,7.07 -25.11,15.55 -25.11,34.04 0,22.67 18.43,35.06 44.56,35.06 12.66,0 22.45,-3.45 28.55,-4.53 v -21.31 c -3.39,1.58 -15.04,7.35 -28.78,7.35 -10.28,0 -20.58,-5.55 -20.58,-13.4 0,-8.71 10,-13.51 18.21,-18.5 l 10.01,-5.82"
        style="fill:#040606;fill-opacity:1;fill-rule:nonzero;stroke:none"
        id="path20" /><path
        d="m 3729.64,1127.87 c -9.22,-2.89 -20.08,-4.75 -34.9,-4.75 -47.94,0 -61.45,39.01 -61.45,70.17 0,35.11 16.11,61.24 53.59,61.24 35.63,0 44.85,-23.19 44.85,-43.77 h -27.14 c 0,9.5 -1.87,25.28 -19.29,25.28 -15.6,0 -25.56,-15.04 -25.56,-38.28 0,-24.77 10.24,-56.15 49.82,-56.15 6.56,0 13.17,0.51 20.08,2.66 v -16.4"
        style="fill:#040606;fill-opacity:1;fill-rule:nonzero;stroke:none"
        id="path22" /><path
        d="m 3754.97,1308.07 h 23.69 v -83.34 h 0.56 c 4.19,10.52 14.26,29.8 39.87,29.8 29,0 33.75,-25.84 33.75,-41.45 v -87.07 h -23.75 v 68.64 c 0,23.18 0,36.13 -17.19,36.13 -19.5,0 -33.24,-26.35 -33.24,-51.4 v -53.37 h -23.69 v 182.06"
        style="fill:#040606;fill-opacity:1;fill-rule:nonzero;stroke:none"
        id="path24" /><path
        d="m 4218.45,1152.97 h -0.51 c -3.96,-10.57 -14.19,-29.79 -39.81,-29.79 -29.01,0 -33.82,25.84 -33.82,41.39 v 87.07 h 23.75 V 1183 c 0,-23.46 0,-36.13 17.19,-36.13 19.51,0 33.2,26.41 33.2,51.45 v 53.32 h 23.79 v -125.58 h -23.79 v 26.91"
        style="fill:#040606;fill-opacity:1;fill-rule:nonzero;stroke:none"
        id="path26" /><path
        d="m 4282.57,1251.64 h 23.69 v -26.91 h 0.62 c 4.18,10.52 14.24,29.8 39.81,29.8 29,0 33.81,-25.84 33.81,-41.45 v -87.02 h -23.8 v 68.59 c 0,23.18 0,36.13 -17.14,36.13 -19.51,0 -33.3,-26.35 -33.3,-51.45 v -53.27 h -23.69 v 125.58"
        style="fill:#040606;fill-opacity:1;fill-rule:nonzero;stroke:none"
        id="path28" /><path
        d="m 4483.35,1213.87 c 0,7.98 -4.75,22.17 -22.96,22.17 -19.5,0 -25.05,-16.57 -25.05,-22.17 z m 20.87,-86.51 c -10.3,-2.43 -17.71,-4.24 -31.45,-4.24 -37.94,0 -62.25,22.45 -62.25,71.81 0,53.83 35.05,59.6 51.17,59.6 30.65,0 45.41,-20.87 45.41,-50.39 v -6.04 h -72.78 c 0,-23.58 11.82,-56.49 46.15,-56.49 10.8,0 18.2,2.6 23.75,4.46 v -18.71"
        style="fill:#040606;fill-opacity:1;fill-rule:nonzero;stroke:none"
        id="path30" /><path
        d="m 4578.85,1198.32 c 13.17,-8.14 29,-16.34 29,-37.2 0,-26.35 -18.94,-38 -47.21,-38 -17.18,0 -28.27,3.45 -33.82,5.04 v 20.8 c 2.39,-1.07 18.5,-7.35 31.73,-7.35 11.31,0 25.56,3.17 25.56,16.06 0,9.56 -11.59,14.81 -20.08,20.35 l -12.1,7.41 c -11.37,7.07 -25.11,15.55 -25.11,34.04 0,22.67 18.5,35.06 44.62,35.06 12.67,0 22.45,-3.45 28.5,-4.53 v -21.31 c -3.45,1.58 -15.04,7.35 -28.72,7.35 -10.35,0 -20.59,-5.55 -20.59,-13.4 0,-8.71 10.01,-13.51 18.22,-18.5 l 10,-5.82"
        style="fill:#040606;fill-opacity:1;fill-rule:nonzero;stroke:none"
        id="path32" /><path
        d="m 4744.74,1198.32 c 13.24,-8.14 29.07,-16.34 29.07,-37.2 0,-26.35 -19,-38 -47.27,-38 -17.13,0 -28.22,3.45 -33.76,5.04 v 20.8 c 2.37,-1.07 18.49,-7.35 31.67,-7.35 11.36,0 25.62,3.17 25.62,16.06 0,9.56 -11.59,14.81 -20.08,20.35 l -12.1,7.41 c -11.37,7.07 -25.11,15.55 -25.11,34.04 0,22.67 18.49,35.06 44.62,35.06 12.67,0 22.44,-3.45 28.49,-4.53 v -21.31 c -3.45,1.58 -15.09,7.35 -28.78,7.35 -10.29,0 -20.58,-5.55 -20.58,-13.4 0,-8.71 10.01,-13.51 18.2,-18.5 l 10.01,-5.82"
        style="fill:#040606;fill-opacity:1;fill-rule:nonzero;stroke:none"
        id="path34" /><path
        d="m 4887.23,1127.87 c -9.21,-2.89 -20.01,-4.75 -34.83,-4.75 -48,0 -61.45,39.01 -61.45,70.17 0,35.11 16.05,61.24 53.54,61.24 35.62,0 44.83,-23.19 44.83,-43.77 h -27.13 c 0,9.5 -1.81,25.28 -19.28,25.28 -15.56,0 -25.56,-15.04 -25.56,-38.28 0,-24.77 10.23,-56.15 49.87,-56.15 6.56,0 13.17,0.51 20.01,2.66 v -16.4"
        style="fill:#040606;fill-opacity:1;fill-rule:nonzero;stroke:none"
        id="path36" /><path
        d="m 4912.57,1308.07 h 23.74 v -83.34 h 0.51 c 4.24,10.52 14.31,29.8 39.87,29.8 29,0 33.75,-25.84 33.75,-41.45 v -87.07 h -23.69 v 68.64 c 0,23.18 0,36.13 -17.25,36.13 -19.44,0 -33.19,-26.35 -33.19,-51.4 v -53.37 h -23.74 v 182.06"
        style="fill:#040606;fill-opacity:1;fill-rule:nonzero;stroke:none"
        id="path38" /><path
        d="m 5113.35,1213.87 c 0,7.98 -4.75,22.17 -22.96,22.17 -19.5,0 -25.05,-16.57 -25.05,-22.17 z m 20.87,-86.51 c -10.35,-2.43 -17.77,-4.24 -31.45,-4.24 -38,0 -62.3,22.45 -62.3,71.81 0,53.83 35.16,59.6 51.22,59.6 30.64,0 45.35,-20.87 45.35,-50.39 v -6.04 h -72.77 c 0,-23.58 11.87,-56.49 46.14,-56.49 10.85,0 18.2,2.6 23.81,4.46 v -18.71"
        style="fill:#040606;fill-opacity:1;fill-rule:nonzero;stroke:none"
        id="path40" /><path
        d="m 3109.93,1005.23 h 23.75 v -26.914 h 0.5 c 4.24,10.52 14.25,29.804 39.87,29.804 29.01,0 33.75,-25.85 33.75,-41.448 v -87.024 h -23.69 v 68.586 c 0,23.184 0,36.188 -17.19,36.188 -19.56,0 -33.24,-26.402 -33.24,-51.512 v -53.262 h -23.75 v 125.582"
        style="fill:#040606;fill-opacity:1;fill-rule:nonzero;stroke:none"
        id="path42" /><path
        d="m 3289.05,895.195 c 19.23,0 27.2,26.692 27.2,47.496 0,21.883 -6.39,46.934 -27.48,46.934 -18.43,0 -24.54,-20.805 -24.54,-47.16 0,-19.051 2.65,-47.27 24.82,-47.27 m 27.2,3.676 h -0.51 c -2.66,-7.07 -12.95,-22.16 -34.83,-22.16 -30.59,0 -43.03,27.703 -43.03,63.605 0,41.676 15.78,67.804 44.34,67.804 20.8,0 30.58,-12.952 33.52,-20.307 h 0.51 v 73.847 H 3340 V 879.648 h -23.75 v 19.223"
        style="fill:#040606;fill-opacity:1;fill-rule:nonzero;stroke:none"
        id="path44" /><path
        d="m 3451.55,906.563 h -0.5 c -3.96,-10.571 -14.3,-29.801 -39.86,-29.801 -29.01,0 -33.76,25.847 -33.76,41.394 v 87.074 h 23.75 v -68.64 c 0,-23.465 0,-36.129 17.13,-36.129 19.51,0 33.24,26.398 33.24,51.449 v 53.32 h 23.76 V 879.648 h -23.76 v 26.915"
        style="fill:#040606;fill-opacity:1;fill-rule:nonzero;stroke:none"
        id="path46" /><path
        d="m 3557.92,951.91 c 13.16,-8.144 29,-16.344 29,-37.207 0,-26.348 -19,-37.992 -47.21,-37.992 -17.13,0 -28.28,3.445 -33.81,5.031 v 20.809 c 2.37,-1.016 18.48,-7.356 31.66,-7.356 11.31,0 25.55,3.168 25.55,16.118 0,9.5 -11.53,14.757 -20.02,20.3 L 3531,939.02 c -11.36,7.066 -25.1,15.546 -25.1,34.039 0,22.675 18.48,35.061 44.61,35.061 12.6,0 22.39,-3.46 28.49,-4.53 v -21.32 c -3.44,1.589 -15.04,7.355 -28.78,7.355 -10.29,0 -20.57,-5.543 -20.57,-13.402 0,-8.707 10.06,-13.512 18.2,-18.489 l 10.07,-5.824"
        style="fill:#040606;fill-opacity:1;fill-rule:nonzero;stroke:none"
        id="path48" /><path
        d="m 3679.99,878.574 c -6.05,-1.297 -12.38,-1.863 -18.71,-1.863 -30.36,0 -37.72,13.457 -37.72,30.59 v 79.437 h -22.39 v 18.492 h 22.39 v 29.52 l 23.75,14.8 v -44.32 h 34.83 v -18.492 h -34.83 v -67 c 0,-11.363 1.58,-24.484 20.07,-24.484 4.24,0 9.22,0.738 12.61,1.812 v -18.492"
        style="fill:#040606;fill-opacity:1;fill-rule:nonzero;stroke:none"
        id="path50" /><path
        d="m 3706.11,1005.23 h 23.81 v -25.332 h 0.51 c 3.45,10.008 13.96,28.222 38.79,28.222 v -25.85 c -21.38,0 -39.3,-10.852 -39.3,-49.36 v -53.262 h -23.81 v 125.582"
        style="fill:#040606;fill-opacity:1;fill-rule:nonzero;stroke:none"
        id="path52" /><path
        d="m 3926.12,967.461 c 0,7.969 -4.7,22.223 -22.96,22.223 -19.5,0 -24.99,-16.625 -24.99,-22.223 z m 20.92,-86.512 c -10.34,-2.433 -17.7,-4.238 -31.44,-4.238 -37.99,0 -62.25,22.445 -62.25,71.805 0,53.834 35.06,59.604 51.17,59.604 30.6,0 45.35,-20.815 45.35,-50.386 v -6.05 h -72.77 c 0,-23.52 11.87,-56.489 46.14,-56.489 10.8,0 18.2,2.606 23.8,4.469 v -18.715"
        style="fill:#040606;fill-opacity:1;fill-rule:nonzero;stroke:none"
        id="path54" /><path
        d="m 4252.49,906.563 h -0.51 c -3.96,-10.571 -14.31,-29.801 -39.87,-29.801 -29.01,0 -33.75,25.847 -33.75,41.394 v 87.074 h 23.75 v -68.64 c 0,-23.465 0,-36.129 17.13,-36.129 19.56,0 33.25,26.398 33.25,51.449 v 53.32 h 23.8 V 879.648 h -23.8 v 26.915"
        style="fill:#040606;fill-opacity:1;fill-rule:nonzero;stroke:none"
        id="path56" /><path
        d="m 4316.6,1005.23 h 23.75 v -26.914 h 0.57 c 4.19,10.52 14.19,29.804 39.8,29.804 29.01,0 33.76,-25.85 33.76,-41.448 v -87.024 h -23.75 v 68.586 c 0,23.184 0,36.188 -17.13,36.188 -19.57,0 -33.25,-26.402 -33.25,-51.512 v -53.262 h -23.75 v 125.582"
        style="fill:#040606;fill-opacity:1;fill-rule:nonzero;stroke:none"
        id="path58" /><path
        d="m 4495.73,895.195 c 19.23,0 27.2,26.692 27.2,47.496 0,21.883 -6.39,46.934 -27.48,46.934 -18.49,0 -24.54,-20.805 -24.54,-47.16 0,-19.051 2.65,-47.27 24.82,-47.27 m 27.2,3.676 h -0.57 c -2.6,-7.07 -12.89,-22.16 -34.82,-22.16 -30.6,0 -42.98,27.703 -42.98,63.605 0,41.676 15.77,67.804 44.33,67.804 20.81,0 30.59,-12.952 33.47,-20.307 h 0.57 v 73.847 h 23.75 V 879.648 h -23.75 v 19.223"
        style="fill:#040606;fill-opacity:1;fill-rule:nonzero;stroke:none"
        id="path60" /><path
        d="m 4885.42,935.852 c -18.71,0 -37.48,-8.485 -37.48,-24.594 0,-9.723 6.61,-16.063 13.74,-16.063 16.28,0 28.44,18.715 28.44,33.532 v 7.125 z m 4.7,-40.657 h -0.51 c -3.22,-6.898 -13.18,-18.433 -32.4,-18.433 -23.58,0 -35.62,14.195 -35.62,33.761 0,33.188 36.64,41.161 68.53,41.161 v 21.882 c -2.09,12.098 -10.3,16.118 -19.28,16.118 -14.2,0 -20.08,-9.274 -20.08,-19.282 h -24.99 c 0,20.016 11.87,37.718 46.99,37.718 41.11,0 41.11,-30.878 41.11,-42.245 v -86.281 h -23.75 v 15.601"
        style="fill:#040606;fill-opacity:1;fill-rule:nonzero;stroke:none"
        id="path62" /><path
        d="m 4951.86,1005.23 h 23.75 v -26.914 h 0.56 c 4.19,10.52 14.2,29.804 39.81,29.804 29.01,0 33.81,-25.85 33.81,-41.448 v -87.024 h -23.81 v 68.586 c 0,23.184 0,36.188 -17.12,36.188 -19.56,0 -33.25,-26.402 -33.25,-51.512 v -53.262 h -23.75 v 125.582"
        style="fill:#040606;fill-opacity:1;fill-rule:nonzero;stroke:none"
        id="path64" /><path
        d="m 5130.99,895.195 c 19.22,0 27.19,26.692 27.19,47.496 0,21.883 -6.33,46.934 -27.47,46.934 -18.44,0 -24.54,-20.805 -24.54,-47.16 0,-19.051 2.66,-47.27 24.82,-47.27 m 27.19,3.676 h -0.55 c -2.61,-7.07 -12.91,-22.16 -34.84,-22.16 -30.54,0 -42.97,27.703 -42.97,63.605 0,41.676 15.77,67.804 44.33,67.804 20.81,0 30.58,-12.952 33.48,-20.307 h 0.55 v 73.847 h 23.75 V 879.648 h -23.75 v 19.223"
        style="fill:#040606;fill-opacity:1;fill-rule:nonzero;stroke:none"
        id="path66" /><path
        d="m 5284.5,967.461 c 0,7.969 -4.69,22.223 -22.96,22.223 -19.44,0 -24.99,-16.625 -24.99,-22.223 z m 20.92,-86.512 c -10.34,-2.433 -17.75,-4.238 -31.44,-4.238 -38,0 -62.3,22.445 -62.3,71.805 0,53.834 35.16,59.604 51.22,59.604 30.65,0 45.35,-20.815 45.35,-50.386 v -6.05 h -72.77 c 0,-23.52 11.87,-56.489 46.14,-56.489 10.86,0 18.2,2.606 23.8,4.469 v -18.715"
        style="fill:#040606;fill-opacity:1;fill-rule:nonzero;stroke:none"
        id="path68" /><path
        d="m 5448.36,951.91 c 13.18,-8.144 29.01,-16.344 29.01,-37.207 0,-26.348 -18.99,-37.992 -47.22,-37.992 -17.18,0 -28.21,3.445 -33.8,5.031 v 20.809 c 2.37,-1.016 18.48,-7.356 31.71,-7.356 11.31,0 25.56,3.168 25.56,16.118 0,9.5 -11.59,14.757 -20.07,20.3 l -12.1,7.407 c -11.36,7.066 -25.1,15.546 -25.1,34.039 0,22.675 18.48,35.061 44.61,35.061 12.66,0 22.45,-3.46 28.49,-4.53 v -21.32 c -3.45,1.589 -15.04,7.355 -28.78,7.355 -10.29,0 -20.53,-5.543 -20.53,-13.402 0,-8.707 10.01,-13.512 18.22,-18.489 l 10,-5.824"
        style="fill:#040606;fill-opacity:1;fill-rule:nonzero;stroke:none"
        id="path70" /><path
        d="m 5681.6,935.852 c -18.77,0 -37.48,-8.485 -37.48,-24.594 0,-9.723 6.55,-16.063 13.68,-16.063 16.4,0 28.56,18.715 28.56,33.532 v 7.125 z m 4.76,-40.657 h -0.57 c -3.17,-6.898 -13.18,-18.433 -32.46,-18.433 -23.47,0 -35.57,14.195 -35.57,33.761 0,33.188 36.64,41.161 68.6,41.161 v 21.882 c -2.1,12.098 -10.36,16.118 -19.29,16.118 -14.25,0 -20.07,-9.274 -20.07,-19.282 h -25.11 c 0,20.016 11.94,37.718 46.99,37.718 41.22,0 41.22,-30.878 41.22,-42.245 v -86.281 h -23.74 v 15.601"
        style="fill:#040606;fill-opacity:1;fill-rule:nonzero;stroke:none"
        id="path72" /><path
        d="m 5748.32,1005.23 h 23.75 v -25.05 h 0.51 c 3.74,10.011 12.66,27.94 35.11,27.94 22.17,0 30.08,-15.272 31.95,-26.636 h 0.5 c 4.24,10.52 14.76,26.636 35.63,26.636 29.52,0 34.04,-25.85 34.04,-41.448 v -87.024 h -23.75 v 68.586 c 0,23.465 0,36.188 -17.42,36.188 -14.81,0 -27.7,-23.524 -27.7,-44.664 v -60.11 h -23.74 v 68.586 c 0,23.184 0,36.188 -16.64,36.188 -16.62,0 -28.49,-26.402 -28.49,-51.512 v -53.262 h -23.75 v 125.582"
        style="fill:#040606;fill-opacity:1;fill-rule:nonzero;stroke:none"
        id="path74" /><path
        d="m 5948.54,1005.23 h 23.74 v -25.05 h 0.57 c 3.62,10.011 12.67,27.94 35.06,27.94 22.22,0 30.08,-15.272 31.95,-26.636 h 0.45 c 4.3,10.52 14.82,26.636 35.67,26.636 29.53,0 34.05,-25.85 34.05,-41.448 v -87.024 h -23.75 v 68.586 c 0,23.465 0,36.188 -17.41,36.188 -14.76,0 -27.65,-23.524 -27.65,-44.664 v -60.11 h -23.81 v 68.586 c 0,23.184 0,36.188 -16.62,36.188 -16.63,0 -28.51,-26.402 -28.51,-51.512 v -53.262 h -23.74 v 125.582"
        style="fill:#040606;fill-opacity:1;fill-rule:nonzero;stroke:none"
        id="path76" /><path
        d="m 6212.37,967.461 c 0,7.969 -4.75,22.223 -22.96,22.223 -19.5,0 -25.05,-16.625 -25.05,-22.223 z m 20.8,-86.512 c -10.23,-2.433 -17.63,-4.238 -31.32,-4.238 -37.99,0 -62.25,22.445 -62.25,71.805 0,53.834 35.06,59.604 51.17,59.604 30.59,0 45.35,-20.815 45.35,-50.386 v -6.05 h -72.83 c 0,-23.52 11.87,-56.489 46.2,-56.489 10.79,0 18.2,2.606 23.68,4.469 v -18.715"
        style="fill:#040606;fill-opacity:1;fill-rule:nonzero;stroke:none"
        id="path78" /><path
        d="m 6265.63,1005.23 h 23.75 v -25.332 h 0.57 c 3.45,10.008 13.96,28.222 38.78,28.222 v -25.85 c -21.37,0 -39.35,-10.852 -39.35,-49.36 v -53.262 h -23.75 v 125.582"
        style="fill:#040606;fill-opacity:1;fill-rule:nonzero;stroke:none"
        id="path80" /><path
        d="m 3154.54,284.43 c -7.64,-3.399 -26.41,-10.809 -47.78,-10.809 -40.09,0 -72.55,24.82 -72.55,96.07 0,48.282 15.84,91.77 68.82,91.77 37.26,0 58.57,-21.602 58.57,-52.754 h -30.58 c 0,11.133 -3.17,31.719 -28.73,31.719 -34.32,0 -39.07,-41.731 -39.07,-66.496 0,-45.68 11.09,-79.16 48.8,-79.16 22.39,0 37.71,11.308 42.52,14.25 v -24.59"
        style="fill:#040606;fill-opacity:1;fill-rule:nonzero;stroke:none"
        id="path82" /><path
        d="m 3183.26,458.629 h 23.69 V 375.23 h 0.63 c 4.18,10.52 14.19,29.793 39.8,29.793 29.01,0 33.76,-25.839 33.76,-41.386 V 276.57 h -23.75 v 68.641 c 0,23.125 0,36.074 -17.14,36.074 -19.5,0 -33.3,-26.359 -33.3,-51.398 V 276.57 h -23.69 v 182.059"
        style="fill:#040606;fill-opacity:1;fill-rule:nonzero;stroke:none"
        id="path84" /><path
        d="m 3375.85,332.77 c -18.72,0 -37.43,-8.43 -37.43,-24.598 0,-9.731 6.55,-16.063 13.62,-16.063 16.4,0 28.55,18.774 28.55,33.473 v 7.188 z m 4.74,-40.661 h -0.56 c -3.11,-6.898 -13.18,-18.488 -32.39,-18.488 -23.53,0 -35.63,14.32 -35.63,33.82 0,33.192 36.64,41.102 68.58,41.102 v 21.941 c -2.09,12.102 -10.35,16.055 -19.21,16.055 -14.31,0 -20.08,-9.219 -20.08,-19.23 h -25.1 c 0,20.019 11.86,37.714 46.98,37.714 41.16,0 41.16,-30.867 41.16,-42.234 V 276.57 h -23.75 v 15.539"
        style="fill:#040606;fill-opacity:1;fill-rule:nonzero;stroke:none"
        id="path86" /><path
        d="m 3442.57,402.145 h 23.75 v -25.051 h 0.56 c 3.68,10.011 12.67,27.929 35.06,27.929 22.22,0 30.14,-15.32 31.95,-26.628 h 0.5 c 4.24,10.515 14.82,26.628 35.68,26.628 29.52,0 33.98,-25.839 33.98,-41.445 V 276.57 h -23.75 v 68.582 c 0,23.465 0,36.133 -17.41,36.133 -14.76,0 -27.71,-23.469 -27.71,-44.562 V 276.57 h -23.69 v 68.582 c 0,23.184 0,36.133 -16.62,36.133 -16.68,0 -28.55,-26.359 -28.55,-51.457 V 276.57 h -23.75 v 125.575"
        style="fill:#040606;fill-opacity:1;fill-rule:nonzero;stroke:none"
        id="path88" /><path
        d="m 3687.39,292.109 c 20.81,0 25.85,23.473 25.85,46.704 0,18.214 -3.11,47.726 -22.96,47.726 -19.51,0 -26.63,-29.797 -26.63,-46.934 0,-19.503 0.57,-47.496 23.74,-47.496 m -23.74,92.907 h 0.57 c 2.88,6.836 12.66,20.007 32.67,20.007 34.84,0 42.75,-34.031 42.75,-67 0,-38.793 -14.52,-64.402 -50.88,-64.402 -47.28,0 -48.8,39.07 -48.8,54.91 v 130.098 h 23.69 v -73.613"
        style="fill:#040606;fill-opacity:1;fill-rule:nonzero;stroke:none"
        id="path90" /><path
        d="m 3769.44,402.145 h 23.75 v -25.332 h 0.57 c 3.45,10.007 13.96,28.21 38.78,28.21 v -25.839 c -21.37,0 -39.35,-10.848 -39.35,-49.356 V 276.57 h -23.75 v 125.575"
        style="fill:#040606;fill-opacity:1;fill-rule:nonzero;stroke:none"
        id="path92" /><path
        d="m 3921.14,364.43 c 0,7.918 -4.75,22.109 -22.95,22.109 -19.57,0 -25.05,-16.562 -25.05,-22.109 z m 20.81,-86.559 c -10.23,-2.383 -17.64,-4.25 -31.38,-4.25 -37.93,0 -62.25,22.449 -62.25,71.813 0,53.828 35.11,59.589 51.17,59.589 30.65,0 45.4,-20.8 45.4,-50.378 v -6.047 h -72.82 c 0,-23.512 11.87,-56.489 46.19,-56.489 10.8,0 18.2,2.661 23.69,4.469 v -18.707"
        style="fill:#040606;fill-opacity:1;fill-rule:nonzero;stroke:none"
        id="path94" /><path
        d="m 4203.47,303.48 h -0.51 c -4.03,-10.57 -14.31,-29.8 -39.87,-29.8 -29.01,0 -33.76,25.789 -33.76,41.336 v 87.129 h 23.75 v -68.641 c 0,-23.469 0,-36.074 17.19,-36.074 19.5,0 33.2,26.343 33.2,51.394 v 53.321 h 23.74 V 276.57 h -23.74 v 26.91"
        style="fill:#040606;fill-opacity:1;fill-rule:nonzero;stroke:none"
        id="path96" /><path
        d="m 4267.58,402.145 h 23.7 V 375.23 h 0.55 c 4.19,10.52 14.25,29.793 39.87,29.793 28.95,0 33.7,-25.839 33.7,-41.445 V 276.57 h -23.69 v 68.582 c 0,23.184 0,36.133 -17.19,36.133 -19.51,0 -33.24,-26.359 -33.24,-51.457 V 276.57 h -23.7 v 125.575"
        style="fill:#040606;fill-opacity:1;fill-rule:nonzero;stroke:none"
        id="path98" /><path
        d="m 4515.01,348.883 c 13.23,-8.203 29.01,-16.399 29.01,-37.266 0,-26.347 -18.94,-37.996 -47.21,-37.996 -17.19,0 -28.22,3.457 -33.76,4.981 v 20.918 c 2.38,-1.079 18.43,-7.411 31.67,-7.411 11.3,0 25.55,3.172 25.55,16.118 0,9.503 -11.59,14.757 -20.08,20.304 l -12.04,7.344 c -11.36,7.176 -25.1,15.547 -25.1,34.043 0,22.723 18.43,35.105 44.56,35.105 12.66,0 22.44,-3.445 28.49,-4.46 v -21.379 c -3.45,1.593 -15.04,7.355 -28.72,7.355 -10.35,0 -20.58,-5.535 -20.58,-13.398 0,-8.711 10.01,-13.457 18.21,-18.496 l 10,-5.762"
        style="fill:#040606;fill-opacity:1;fill-rule:nonzero;stroke:none"
        id="path100" /><path
        d="m 4617.07,292.109 c 25.61,0 29.06,27.204 29.06,47.211 0,20.364 -3.45,47.219 -29.06,47.219 -26.07,0 -29.23,-26.855 -29.23,-47.219 0,-20.007 3.16,-47.211 29.23,-47.211 m -55.64,47.211 c 0,40.102 17.7,65.703 55.64,65.703 37.77,0 55.47,-25.601 55.47,-65.703 0,-39.57 -17.7,-65.64 -55.47,-65.64 -37.94,0 -55.64,26.07 -55.64,65.64"
        style="fill:#040606;fill-opacity:1;fill-rule:nonzero;stroke:none"
        id="path102" /><path
        d="m 5186.12,364.43 c 0,7.918 -4.7,22.109 -22.96,22.109 -19.45,0 -25.05,-16.562 -25.05,-22.109 z m 20.86,-86.559 c -10.29,-2.383 -17.69,-4.25 -31.38,-4.25 -37.99,0 -62.25,22.449 -62.25,71.813 0,53.828 35.11,59.589 51.17,59.589 30.64,0 45.35,-20.8 45.35,-50.378 v -6.047 h -72.83 c 0,-23.512 11.87,-56.489 46.19,-56.489 10.86,0 18.21,2.661 23.75,4.469 v -18.707"
        style="fill:#040606;fill-opacity:1;fill-rule:nonzero;stroke:none"
        id="path104" /><path
        d="m 5239.67,402.145 h 23.75 v -25.051 h 0.55 c 3.68,10.011 12.67,27.929 35.12,27.929 22.17,0 30.02,-15.32 31.89,-26.628 h 0.51 c 4.24,10.515 14.82,26.628 35.62,26.628 29.58,0 34.04,-25.839 34.04,-41.445 V 276.57 h -23.75 v 68.582 c 0,23.465 0,36.133 -17.41,36.133 -14.76,0 -27.66,-23.469 -27.66,-44.562 V 276.57 h -23.74 v 68.582 c 0,23.184 0,36.133 -16.68,36.133 -16.57,0 -28.49,-26.359 -28.49,-51.457 V 276.57 h -23.75 v 125.575"
        style="fill:#040606;fill-opacity:1;fill-rule:nonzero;stroke:none"
        id="path106" /><path
        d="m 5495.35,332.77 c -18.71,0 -37.49,-8.43 -37.49,-24.598 0,-9.731 6.62,-16.063 13.68,-16.063 16.4,0 28.57,18.774 28.57,33.473 v 7.188 z m 4.76,-40.661 h -0.58 c -3.16,-6.898 -13.17,-18.488 -32.39,-18.488 -23.53,0 -35.63,14.32 -35.63,33.82 0,33.192 36.64,41.102 68.6,41.102 v 21.941 c -2.16,12.102 -10.36,16.055 -19.29,16.055 -14.25,0 -20.07,-9.219 -20.07,-19.23 h -25.06 c 0,20.019 11.88,37.714 46.99,37.714 41.11,0 41.11,-30.867 41.11,-42.234 V 276.57 h -23.68 v 15.539"
        style="fill:#040606;fill-opacity:1;fill-rule:nonzero;stroke:none"
        id="path108" /><path
        d="m 5561.79,402.145 h 23.75 V 375.23 h 0.56 c 4.24,10.52 14.25,29.793 39.81,29.793 29,0 33.8,-25.839 33.8,-41.445 V 276.57 h -23.79 v 68.582 c 0,23.184 0,36.133 -17.13,36.133 -19.51,0 -33.25,-26.359 -33.25,-51.457 V 276.57 h -23.75 v 125.575"
        style="fill:#040606;fill-opacity:1;fill-rule:nonzero;stroke:none"
        id="path110" /><path
        d="m 5740.97,292.109 c 19.22,0 27.2,26.637 27.2,47.496 0,21.883 -6.39,46.934 -27.48,46.934 -18.49,0 -24.54,-20.801 -24.54,-47.219 0,-18.992 2.66,-47.211 24.82,-47.211 m 27.2,3.743 h -0.56 c -2.66,-7.133 -12.95,-22.231 -34.84,-22.231 -30.58,0 -43.03,27.699 -43.03,63.609 0,41.672 15.83,67.793 44.33,67.793 20.87,0 30.6,-12.89 33.54,-20.293 h 0.56 v 73.899 h 23.69 V 276.57 h -23.69 v 19.282"
        style="fill:#040606;fill-opacity:1;fill-rule:nonzero;stroke:none"
        id="path112" /><path
        d="m 5894.48,364.43 c 0,7.918 -4.75,22.109 -22.95,22.109 -19.45,0 -25.05,-16.562 -25.05,-22.109 z m 20.87,-86.559 c -10.29,-2.383 -17.7,-4.25 -31.39,-4.25 -37.99,0 -62.24,22.449 -62.24,71.813 0,53.828 35.06,59.589 51.11,59.589 30.64,0 45.4,-20.8 45.4,-50.378 v -6.047 h -72.77 c 0,-23.512 11.82,-56.489 46.14,-56.489 10.8,0 18.21,2.661 23.75,4.469 v -18.707"
        style="fill:#040606;fill-opacity:1;fill-rule:nonzero;stroke:none"
        id="path114" /><path
        d="m 3083.8,45.6992 c 19.28,0 27.2,26.6289 27.2,47.5 0,21.8708 -6.33,46.9218 -27.48,46.9218 -18.49,0 -24.54,-20.801 -24.54,-47.1522 0,-19.0586 2.66,-47.2696 24.82,-47.2696 m 27.2,3.7305 h -0.51 c -2.65,-7.1211 -13,-22.2188 -34.83,-22.2188 -30.65,0 -43.08,27.711 -43.08,63.6172 0,41.7229 15.89,67.7929 44.38,67.7929 20.81,0 30.59,-12.902 33.53,-20.301 h 0.51 v 73.899 h 23.75 V 30.1484 H 3111 v 19.2813"
        style="fill:#040606;fill-opacity:1;fill-rule:nonzero;stroke:none"
        id="path116" /><path
        d="m 3237.31,118.012 c 0,7.918 -4.68,22.109 -22.95,22.109 -19.45,0 -25,-16.562 -25,-22.109 z m 20.93,-86.5628 c -10.35,-2.3711 -17.75,-4.2383 -31.43,-4.2383 -38,0 -62.32,22.4375 -62.32,71.8086 0,53.8325 35.11,59.6015 51.17,59.6015 30.65,0 45.4,-20.812 45.4,-50.383 v -6.058 h -72.77 c 0,-23.5081 11.87,-56.4808 46.14,-56.4808 10.8,0 18.21,2.6602 23.81,4.5196 V 31.4492"
        style="fill:#040606;fill-opacity:1;fill-rule:nonzero;stroke:none"
        id="path118" /><path
        d="m 3563.96,155.73 h 23.69 v -26.91 h 0.57 c 4.18,10.571 14.25,29.801 39.86,29.801 29.01,0 33.75,-25.84 33.75,-41.391 V 30.1484 h -23.74 v 68.5899 c 0,23.1837 0,36.1917 -17.13,36.1917 -19.57,0 -33.31,-26.41 -33.31,-51.5198 V 30.1484 h -23.69 V 155.73"
        style="fill:#040606;fill-opacity:1;fill-rule:nonzero;stroke:none"
        id="path120" /><path
        d="m 3743.04,45.6992 c 19.27,0 27.25,26.6289 27.25,47.5 0,21.8708 -6.4,46.9218 -27.48,46.9218 -18.5,0 -24.54,-20.801 -24.54,-47.1522 0,-19.0586 2.66,-47.2696 24.77,-47.2696 m 27.25,3.7305 h -0.62 c -2.55,-7.1211 -12.89,-22.2188 -34.78,-22.2188 -30.58,0 -42.97,27.711 -42.97,63.6172 0,41.7229 15.77,67.7929 44.27,67.7929 20.87,0 30.65,-12.902 33.48,-20.301 h 0.62 v 73.899 h 23.69 V 30.1484 h -23.69 v 19.2813"
        style="fill:#040606;fill-opacity:1;fill-rule:nonzero;stroke:none"
        id="path122" /><path
        d="m 3905.59,57.0703 h -0.56 c -3.96,-10.582 -14.25,-29.8086 -39.81,-29.8086 -29,0 -33.76,25.8477 -33.76,41.3985 V 155.73 h 23.69 V 87.1406 c 0,-23.5117 0,-36.1211 17.2,-36.1211 19.5,0 33.24,26.3399 33.24,51.4495 v 53.261 h 23.75 V 30.1484 h -23.75 v 26.9219"
        style="fill:#040606;fill-opacity:1;fill-rule:nonzero;stroke:none"
        id="path124" /><path
        d="m 4011.89,102.469 c 13.18,-8.1995 29.02,-16.3987 29.02,-37.2073 0,-26.4101 -18.95,-38.0508 -47.22,-38.0508 -17.19,0 -28.27,3.4493 -33.82,5.0274 v 20.8711 c 2.43,-1.0703 18.5,-7.4102 31.73,-7.4102 11.31,0 25.56,3.1602 25.56,16.1094 0,9.5 -11.6,14.7695 -20.08,20.3633 l -12.04,7.3476 c -11.37,7.1289 -25.17,15.5395 -25.17,34.0395 0,22.679 18.5,35.062 44.62,35.062 12.67,0 22.44,-3.402 28.5,-4.473 v -21.367 c -3.45,1.578 -15.04,7.34 -28.73,7.34 -10.35,0 -20.58,-5.48 -20.58,-13.402 0,-8.707 10.01,-13.449 18.2,-18.418 l 10.01,-5.832"
        style="fill:#040606;fill-opacity:1;fill-rule:nonzero;stroke:none"
        id="path126" /><path
        d="m 4134.03,29.0781 c -6.05,-1.3593 -12.38,-1.8164 -18.66,-1.8164 -30.42,0 -37.83,13.4688 -37.83,30.5977 v 79.3786 h -22.4 v 18.492 h 22.4 v 29.571 l 23.81,14.758 V 155.73 h 34.77 v -18.492 h -34.77 V 70.2383 c 0,-11.3672 1.58,-24.5391 20.06,-24.5391 4.14,0 9.22,0.7891 12.62,1.8594 V 29.0781"
        style="fill:#040606;fill-opacity:1;fill-rule:nonzero;stroke:none"
        id="path128" /><path
        d="m 4160.15,155.73 h 23.74 v -25.332 h 0.57 c 3.4,10.012 13.97,28.223 38.73,28.223 v -25.84 c -21.37,0 -39.3,-10.859 -39.3,-49.3708 V 30.1484 h -23.74 V 155.73"
        style="fill:#040606;fill-opacity:1;fill-rule:nonzero;stroke:none"
        id="path130" /><path
        d="m 4380.15,118.012 c 0,7.918 -4.68,22.109 -22.95,22.109 -19.45,0 -25.04,-16.562 -25.04,-22.109 z m 20.87,-86.5628 c -10.29,-2.3711 -17.64,-4.2383 -31.43,-4.2383 -37.95,0 -62.2,22.4375 -62.2,71.8086 0,53.8325 35.06,59.6015 51.17,59.6015 30.59,0 45.34,-20.812 45.34,-50.383 v -6.058 h -72.76 c 0,-23.5081 11.82,-56.4808 46.13,-56.4808 10.8,0 18.21,2.6602 23.75,4.5196 V 31.4492"
        style="fill:#040606;fill-opacity:1;fill-rule:nonzero;stroke:none"
        id="path132" /><path
        d="m 4575.4,118.012 c 0,7.918 -4.75,22.109 -22.96,22.109 -19.5,0 -25.05,-16.562 -25.05,-22.109 z m 20.81,-86.5628 c -10.29,-2.3711 -17.65,-4.2383 -31.39,-4.2383 -37.94,0 -62.19,22.4375 -62.19,71.8086 0,53.8325 35.05,59.6015 51.12,59.6015 30.64,0 45.4,-20.812 45.4,-50.383 v -6.058 h -72.83 c 0,-23.5081 11.81,-56.4808 46.2,-56.4808 10.8,0 18.2,2.6602 23.69,4.5196 V 31.4492"
        style="fill:#040606;fill-opacity:1;fill-rule:nonzero;stroke:none"
        id="path134" /><path
        d="m 4695.39,29.0781 c -6.06,-1.3593 -12.33,-1.8164 -18.72,-1.8164 -30.36,0 -37.72,13.4688 -37.72,30.5977 v 79.3786 h -22.39 v 18.492 h 22.39 v 29.571 l 23.75,14.758 V 155.73 h 34.83 V 137.238 H 4662.7 V 70.2383 c 0,-11.3672 1.64,-24.5391 20.07,-24.5391 4.19,0 9.22,0.7891 12.62,1.8594 V 29.0781"
        style="fill:#040606;fill-opacity:1;fill-rule:nonzero;stroke:none"
        id="path136" /><path
        d="m 4841.83,45.6992 c 19.28,0 27.19,26.6289 27.19,47.5 0,21.8708 -6.33,46.9218 -27.47,46.9218 -18.44,0 -24.49,-20.801 -24.49,-47.1522 0,-19.0586 2.61,-47.2696 24.77,-47.2696 m 27.19,3.7305 h -0.55 c -2.61,-7.1211 -12.9,-22.2188 -34.78,-22.2188 -30.65,0 -43.03,27.711 -43.03,63.6172 0,41.7229 15.83,67.7929 44.33,67.7929 20.81,0 30.58,-12.902 33.48,-20.301 h 0.55 v 73.899 h 23.75 V 30.1484 h -23.75 v 19.2813"
        style="fill:#040606;fill-opacity:1;fill-rule:nonzero;stroke:none"
        id="path138" /><path
        d="m 5004.39,57.0703 h -0.62 c -3.9,-10.582 -14.19,-29.8086 -39.75,-29.8086 -29.06,0 -33.82,25.8477 -33.82,41.3985 V 155.73 h 23.75 V 87.1406 c 0,-23.5117 0,-36.1211 17.13,-36.1211 19.57,0 33.31,26.3399 33.31,51.4495 v 53.261 h 23.69 V 30.1484 h -23.69 v 26.9219"
        style="fill:#040606;fill-opacity:1;fill-rule:nonzero;stroke:none"
        id="path140" /><path
        d="m 5259.45,38.0586 c -7.63,-3.4492 -26.4,-10.7969 -47.77,-10.7969 -40.09,0 -72.55,24.7774 -72.55,96.0193 0,48.289 15.83,91.879 68.87,91.879 37.2,0 58.58,-21.66 58.58,-52.871 h -30.6 c 0,11.141 -3.16,31.723 -28.77,31.723 -34.32,0 -39.02,-41.731 -39.02,-66.492 0,-45.6294 11.09,-79.1606 48.8,-79.1606 22.39,0 37.72,11.3594 42.46,14.2422 v -24.543"
        style="fill:#040606;fill-opacity:1;fill-rule:nonzero;stroke:none"
        id="path142" /><path
        d="m 5334.88,45.6992 c 25.62,0 29.06,27.1992 29.06,47.2696 0,20.3012 -3.44,47.1522 -29.06,47.1522 -26.06,0 -29.29,-26.851 -29.29,-47.1522 0,-20.0704 3.23,-47.2696 29.29,-47.2696 m -55.63,47.2696 c 0,40.0902 17.69,65.7032 55.63,65.7032 37.77,0 55.41,-25.613 55.41,-65.7032 0,-39.5782 -17.64,-65.7071 -55.41,-65.7071 -37.94,0 -55.63,26.1289 -55.63,65.7071"
        style="fill:#040606;fill-opacity:1;fill-rule:nonzero;stroke:none"
        id="path144" /><path
        d="m 5420.38,155.73 h 23.8 v -25.05 h 0.51 c 3.62,10.011 12.6,27.941 35.05,27.941 22.17,0 30.08,-15.269 31.95,-26.582 h 0.46 c 4.23,10.512 14.81,26.582 35.61,26.582 29.57,0 34.1,-25.84 34.1,-41.391 V 30.1484 h -23.81 v 68.5899 c 0,23.5237 0,36.1917 -17.35,36.1917 -14.76,0 -27.7,-23.532 -27.7,-44.6214 V 30.1484 h -23.75 v 68.5899 c 0,23.1837 0,36.1917 -16.63,36.1917 -16.67,0 -28.44,-26.41 -28.44,-51.5198 V 30.1484 h -23.8 V 155.73"
        style="fill:#040606;fill-opacity:1;fill-rule:nonzero;stroke:none"
        id="path146" /><path
        d="m 5620.59,155.73 h 23.75 v -25.05 h 0.56 c 3.68,10.011 12.62,27.941 35.12,27.941 22.11,0 30.08,-15.269 31.89,-26.582 h 0.51 c 4.24,10.512 14.81,26.582 35.62,26.582 29.58,0 34.04,-25.84 34.04,-41.391 V 30.1484 h -23.75 v 68.5899 c 0,23.5237 0,36.1917 -17.41,36.1917 -14.76,0 -27.71,-23.532 -27.71,-44.6214 V 30.1484 h -23.69 v 68.5899 c 0,23.1837 0,36.1917 -16.62,36.1917 -16.69,0 -28.56,-26.41 -28.56,-51.5198 V 30.1484 h -23.75 V 155.73"
        style="fill:#040606;fill-opacity:1;fill-rule:nonzero;stroke:none"
        id="path148" /><path
        d="m 5884.42,118.012 c 0,7.918 -4.74,22.109 -22.96,22.109 -19.5,0 -25.05,-16.562 -25.05,-22.109 z m 20.87,-86.5628 c -10.29,-2.3711 -17.7,-4.2383 -31.44,-4.2383 -37.94,0 -62.26,22.4375 -62.26,71.8086 0,53.8325 35.12,59.6015 51.17,59.6015 30.65,0 45.41,-20.812 45.41,-50.383 v -6.058 h -72.83 c 0,-23.5081 11.87,-56.4808 46.19,-56.4808 10.8,0 18.21,2.6602 23.76,4.5196 V 31.4492"
        style="fill:#040606;fill-opacity:1;fill-rule:nonzero;stroke:none"
        id="path150" /><path
        d="m 5937.74,155.73 h 23.75 v -25.332 h 0.51 c 3.45,10.012 14.02,28.223 38.79,28.223 v -25.84 c -21.38,0 -39.3,-10.859 -39.3,-49.3708 V 30.1484 h -23.75 V 155.73"
        style="fill:#040606;fill-opacity:1;fill-rule:nonzero;stroke:none"
        id="path152" /><path
        d="m 6112.63,32.0195 c -9.22,-2.9414 -20.07,-4.7578 -34.84,-4.7578 -48,0 -61.45,39.0196 -61.45,70.1797 0,35.1096 16.11,61.1796 53.54,61.1796 35.63,0 44.83,-23.18 44.83,-43.769 h -27.13 c 0,9.5 -1.87,25.269 -19.28,25.269 -15.61,0 -25.56,-15.043 -25.56,-38.223 0,-24.7691 10.24,-56.1988 49.82,-56.1988 6.61,0 13.23,0.5117 20.07,2.6602 V 32.0195"
        style="fill:#040606;fill-opacity:1;fill-rule:nonzero;stroke:none"
        id="path154" /><path
        d="m 6201.8,118.012 c 0,7.918 -4.75,22.109 -22.96,22.109 -19.51,0 -25.05,-16.562 -25.05,-22.109 z m 20.85,-86.5628 c -10.28,-2.3711 -17.69,-4.2383 -31.43,-4.2383 -37.94,0 -62.26,22.4375 -62.26,71.8086 0,53.8325 35.12,59.6015 51.23,59.6015 30.6,0 45.36,-20.812 45.36,-50.383 v -6.058 h -72.84 c 0,-23.5081 11.88,-56.4808 46.2,-56.4808 10.8,0 18.21,2.6602 23.74,4.5196 V 31.4492"
        style="fill:#040606;fill-opacity:1;fill-rule:nonzero;stroke:none"
        id="path156" /><path
        d="m 5139.81,842.219 c -2.49,-4.239 -18.21,-3.164 -25.73,-13.906 -5.65,-8.145 -2.27,-23.868 -7.57,-32.629 -0.23,-0.282 -10.86,-7.524 -11.37,-8.2 l -7.52,-8.144 c 14.99,7.691 38.96,12.496 45.63,20.414 -23.63,14.133 -2.54,21.941 6.56,42.465"
        style="fill:#040606;fill-opacity:1;fill-rule:nonzero;stroke:none"
        id="path158" /><path
        d="m 6209.37,691.984 c 73.9,29.575 78.09,45.629 105.85,110.032 -8.14,-13.856 -23.75,-32.059 -35.91,-42.235 -23.75,-19.508 -27.76,-16.57 -53.2,-33.984 -4.47,-2.887 -27.14,-17.754 -31.83,-19.567 0,0 -36.99,-18.656 -35.74,-28.554 0,0 9.22,-2.828 18.38,-1.41 1.41,0.222 28.21,-8.371 20.98,-11.309 -22.29,-9.219 -28.9,-21.262 -61.69,-28.328 -15.22,-3.227 -13.01,-20.016 -22.23,-26.859 1.02,-4.864 19.9,1.015 19.62,0 14.98,-1.75 18.16,-9.614 30.42,-11.532 -0.45,-0.738 -4.63,-7.75 -3.79,-8.086 -30.93,-9.726 -58.45,-15.836 -83.17,-32.629 -18.65,-12.5 -37.2,-37.207 -56.71,-52.976 -17.7,-14.246 -35.73,-30.703 -52.93,-44.844 21.32,10.516 42.07,18.555 60.51,32.625 13.01,10.012 27.3,27.883 41.55,36.641 19.51,12.277 45.98,21.664 68.03,28.554 14.13,4.524 26.12,0.45 37.88,8.149 4.46,3.043 23.86,14.359 23.86,24.308 3.96,5.598 -1.19,19.282 -1.19,24.543 -9.44,2.715 -21.31,9.719 -30.25,12.266 16.46,5.375 44.05,8.145 60.45,16.281 4.3,2.207 13.62,9.11 15.15,16.285 1.13,8.43 -7.24,16.739 -7.58,20.415 -14.19,3.222 -32.84,14.027 -26.46,12.214"
        style="fill:#040606;fill-opacity:1;fill-rule:nonzero;stroke:none"
        id="path160" /><path
        d="m 3646.35,687.918 c -31.05,3.84 -39.75,13.508 -63.16,3.895 -22.05,-8.762 -36.86,-21.485 -53.78,-33.981 -7.4,4.754 -6.38,-18.828 -7.8,-22.898 9.56,-2.657 20.53,-5.371 30.2,-8.145 -0.9,-2.656 -3.79,-12.215 -3.79,-12.215 -31.44,-15.664 -78.31,-37.488 -113.42,-44.832 -60.23,-12.5 -193.44,-12.441 -204.06,40.707 -5.49,26.969 20.75,135.817 30.18,167.141 l -9.55,-7.914 c -17.47,-13.801 -50.95,-168.047 -39.52,-199.934 5.37,-15.215 28.6,-17.929 50.04,-23.691 114.89,-30.313 222.2,2.762 297.69,56.254 9.33,6.789 30.99,16.457 33.99,28.554 1.13,4.7 -1.64,11.821 0,16.344 -15.1,1.918 -25.62,2.262 -37.83,4.012 0.9,2.66 13.23,15.152 13.23,15.152 12.44,1.871 15.89,4.242 32.22,1.188 7.53,-1.41 16.52,-14.754 30.2,-12.266 31.95,6.274 45.41,90.754 45.41,138.582 -3.68,-6.215 -12.67,-13.516 -15.16,-20.355 -9.05,-23.465 -9.66,-62.028 -15.09,-85.598"
        style="fill:#040606;fill-opacity:1;fill-rule:nonzero;stroke:none"
        id="path162" /><path
        d="m 3721.94,785.734 c -4.4,-8.144 -16.05,-18.32 -18.88,-28.554 -12.67,-43.145 -10.01,-97.426 -15.15,-146.676 2.48,4.414 8.76,10.293 11.37,16.285 16.33,38.848 16.62,111.055 22.66,158.945"
        style="fill:#040606;fill-opacity:1;fill-rule:nonzero;stroke:none"
        id="path164" /><path
        d="m 5135.8,622.719 c -5.09,-16.961 -22.96,-29.289 -34.04,-40.77 0,0 -13.24,-7.406 -15.16,-8.14 4.92,17.925 11.59,34.379 15.16,48.91 11.75,50.324 11.71,103.418 22.67,150.797 -1.3,-2.032 -10.12,-5.993 -11.37,-8.2 -4.8,-8.195 -16.96,-41.101 -18.94,-48.851 -4.91,-19.902 -0.85,-35.563 -3.73,-57.051 -5.54,-40.258 -16.62,-78.199 -30.25,-110.094 7.75,-1.015 6.27,-8.875 18.94,-8.074 7.75,0.555 17.47,12.43 22.68,16.277 53.26,40.372 56.37,135.364 68.01,220.067 -13.56,-23.805 -26.91,-54.227 -30.24,-89.672 -2.32,-23.527 2.26,-44.449 -3.73,-65.199"
        style="fill:#040606;fill-opacity:1;fill-rule:nonzero;stroke:none"
        id="path166" /><path
        d="m 5048.84,773.516 -15.22,-9.496 c -6.16,-12.555 -9.27,-29.344 -11.81,-42.52 -5.83,-29.965 1.29,-50.492 -10.75,-74.297 -2.88,-5.43 -10.46,-4.242 -15.15,-8.199 -2.83,-2.149 -4.75,-10.121 -7.58,-12.215 -39.75,-26.461 -140.96,-55.016 -200.33,-32.621 -5.03,1.922 -24.82,15.148 -26.46,20.406 -6.5,20.246 11.65,114.223 15.1,138.59 7.46,0 4.46,22.387 0,20.352 -14.53,-6.051 -15.27,-46.25 -18.89,-65.196 -4.75,-23.574 -20.52,-95.668 -18.94,-118.168 0,0 8.14,-12.269 3.79,-12.269 7.01,-5.828 14.64,-16.969 22.73,-20.418 57.62,-24.305 166.46,12.5 200.32,32.687 8.77,5.313 22.17,24.934 30.26,28.496 19.73,8.938 39.92,-8.031 52.93,12.211 13.45,21.149 1.52,26.633 -7.52,40.774 -16.12,-6.168 5.7,88.203 7.52,101.883"
        style="fill:#040606;fill-opacity:1;fill-rule:nonzero;stroke:none"
        id="path168" /><path
        d="m 5200.09,749.094 c -11.54,-29.461 -7.75,-59.086 -11.37,-97.824 -1.98,-19.387 -9.22,-47.946 -11.37,-69.321 1.76,1.364 10.07,5.996 11.37,8.203 25.33,45.571 15.21,128.575 30.19,183.364 -4.46,-7.575 -15.44,-15.434 -18.82,-24.422"
        style="fill:#040606;fill-opacity:1;fill-rule:nonzero;stroke:none"
        id="path170" /><path
        d="m 5936.38,741.965 c -11.42,-29.402 -7.63,-59.082 -11.25,-97.82 -1.92,-19.336 -9.27,-47.887 -11.42,-69.262 1.81,1.359 10.07,5.996 11.42,8.199 25.34,45.516 15.15,128.578 30.2,183.367 -4.53,-7.629 -15.5,-15.437 -18.95,-24.484"
        style="fill:#040606;fill-opacity:1;fill-rule:nonzero;stroke:none"
        id="path172" /><path
        d="m 6280.39,616.441 c -0.85,-19.449 -6.56,-48.339 -7.52,-69.882 1.7,1.523 9.73,6.613 10.92,8.875 22.84,47.156 8.13,129.367 20.07,185.007 -4.02,-7.918 -14.59,-16.339 -17.53,-25.617 -9.79,-30.078 -4.36,-59.535 -5.94,-98.383"
        style="fill:#040606;fill-opacity:1;fill-rule:nonzero;stroke:none"
        id="path174" /><path
        d="m 5903.92,778.156 c -35.39,-24.027 -29.96,-88.492 -35.55,-133.215 -12.95,-11.14 -19.57,-16.796 -48.35,-14.082 -2.38,0.231 -12.67,-17.582 -15.16,-20.41 -9.55,8.086 -36.63,34.942 -51.9,21.938 0,0 -52.53,-46.703 8.42,-70.789 0,0 -4.58,-19.278 -43.42,-32.629 -7.12,-2.149 -26.69,-13.289 -33.25,-16.844 -22.67,-11.992 57.73,5.137 62.99,8.477 8.76,5.711 34.15,26.855 42.69,48.679 4.75,11.934 13.68,17.762 15.04,19.231 4.7,4.976 8.65,16.793 14.59,26.011 3.05,-0.964 18.88,-8.085 18.88,-8.085 48.4,3.386 54,88.261 60.5,138.527 1.08,8.82 7.01,34.883 4.52,33.191"
        style="fill:#040606;fill-opacity:1;fill-rule:nonzero;stroke:none"
        id="path176" /><path
        d="m 5436.66,701.711 c 3.5,-1.188 14.41,2.879 18.94,13.793 l 5.26,19.789 c -15.04,-22.223 -24.2,-8.078 -24.2,-8.078 0,1.297 -7.86,-19.797 -19.17,3.894 0,0 -7.97,-16.285 -5.82,-26.519 20.18,-12.438 15.1,0.512 24.99,-2.879"
        style="fill:#040606;fill-opacity:1;fill-rule:nonzero;stroke:none"
        id="path178" /><path
        d="m 4315.64,727.215 c 3.57,-1.195 14.42,2.82 18.95,13.734 l 5.31,19.848 c -15.04,-22.281 -24.26,-8.086 -24.26,-8.086 0,1.246 -7.86,-19.848 -19.05,3.789 0,0 -7.98,-16.172 -5.88,-26.465 20.19,-12.324 15.1,0.567 24.93,-2.82"
        style="fill:#040606;fill-opacity:1;fill-rule:nonzero;stroke:none"
        id="path180" /><path
        d="m 5721.69,630.859 c 13.45,20.469 9.33,43.145 15.15,73.395 0,0 7.58,30.359 -0.95,24.371 -22.8,-15.152 -12.16,-75.262 -27.6,-89.172 -11.43,-10.285 -10.07,-2.199 -24.93,-4.238 0,0 0,-14.137 -6.96,-16.567 -7.12,-2.433 -18.49,8.536 -16.69,9.497 -2.76,-1.133 -4.52,-16.454 -13.05,-18.375 -12.89,-2.938 -13.12,8.484 -17.08,7.066 -15.32,-5.484 -17.07,-24.027 -55.29,-34.887 -46.09,-13 -123.95,-16.679 -170.08,-4.066 -28.73,7.914 -49.14,28.496 -49.14,28.496 -30.08,7.012 -27.93,-16.113 -41.61,-20.359 -17.37,-5.086 -14.65,5.32 -45.36,4.074 -30.76,-1.246 -57.21,-42.578 -48.11,-41.219 18.26,2.828 46.47,8.199 76.16,0 1.07,-0.285 22.44,23.465 28.1,28.551 5.04,-5.371 30.08,-26.121 49.64,-32.176 49.88,-15.547 137.29,-9.832 185.24,4.07 17.53,5.489 47.22,24.774 49.87,28.164 2.49,-1.472 12.73,-6.277 29.51,0.399 1.2,0.508 9.16,11.308 11.37,12.211 10.58,4.976 26.75,2.828 31.1,11.933 3.73,7.743 19.51,-3.625 40.71,28.832"
        style="fill:#040606;fill-opacity:1;fill-rule:nonzero;stroke:none"
        id="path182" /><path
        d="m 3181.57,684.746 c -22.9,-72.715 -64.35,-104.715 -124.68,-123.148 72.15,0 102.34,19.789 136.5,128.804 2.15,11.309 -11.04,-16.062 -11.82,-5.656"
        style="fill:#040606;fill-opacity:1;fill-rule:nonzero;stroke:none"
        id="path184" /><path
        d="m 3929.85,630.859 c 0,0 -26.35,-14.023 -34.04,-8.14 1.42,3.164 0,12.89 0,16.285 3.91,1.414 19.85,6.273 26.46,8.199 -3.61,2.543 15.5,20.184 -7.52,20.352 -46.65,0.23 -40.71,-53.262 -49.19,-73.387 -12.6,2.035 -23.75,7.801 -37.77,4.07 -9.16,-2.265 -34.03,-30.195 -37.77,-32.566 0,-2.102 1.13,-10.07 0,-12.277 6.11,2.371 21.32,11.875 26.46,12.277 23.98,1.922 36.36,-14.027 64.24,0 15.6,7.855 30.41,31.32 41.55,44.777 0.74,1.016 28.11,23.352 7.58,20.41"
        style="fill:#040606;fill-opacity:1;fill-rule:nonzero;stroke:none"
        id="path186" /><path
        d="m 3083.06,643.133 c -9.1,-6.504 -19.61,-6.504 -22.67,0 0.62,4.183 3.79,20.297 3.79,20.297 7.13,8.539 13.74,14.191 25.5,4.297 -1.81,-3.164 -6.62,-24.594 -6.62,-24.594 m 26.47,20.297 c 2.89,13.91 3.79,24.144 -3.79,36.691 -17.87,11.481 -21.31,7.242 -31.78,4.414 -6.16,-10.008 -15.49,-20.808 -22.33,-33.926 -32.91,-63.156 11.08,-64.461 40.71,-32.566 7.8,8.48 16.23,21.09 17.19,25.387"
        style="fill:#040606;fill-opacity:1;fill-rule:nonzero;stroke:none"
        id="path188" /><path
        d="m 3771.08,655.348 c -10.69,6.781 -20.97,-1.985 -27.7,-0.289 -25,-17.016 -26.24,-51 -25,-51 3.96,-7.067 11.87,-11.309 30.03,-9.891 v -8.148 c -0.35,-1.012 -28.68,-25.84 -49.65,-37.145 7.8,-2.824 18.78,-0.676 23.18,0.508 24.71,7.234 66.05,46.875 60.45,85.551 -0.91,6.39 -3.62,11.589 -11.31,20.414"
        style="fill:#040606;fill-opacity:1;fill-rule:nonzero;stroke:none"
        id="path190" /><path
        d="m 4394.4,599.875 c -17.07,0 -17.13,6.785 -10.96,10.629 1.52,1.019 14.47,16.797 18.99,20.355 5.26,4.356 16.86,17.477 22.63,20.356 24.53,12.383 19.9,-11.195 22.66,-12.211 -19.56,-25.844 -19.22,-26.406 -53.32,-39.129 m 166.75,165.441 c -11.53,-24.652 -7.29,-51.507 -11.31,-85.546 -1.07,-8.54 -10.01,-26.344 -11.36,-32.625 -3.28,0 -10.18,-10.516 -15.1,0 -2.99,39.636 2.38,81.929 7.52,122.304 -5.76,-10.972 -20.19,-26.125 -22.67,-40.715 -5.94,-33.418 3.39,-63.609 -11.31,-85.601 -3.68,-5.262 -14.3,-7.918 -18.94,-12.274 -6.67,-6.16 -14.14,-21.543 -22.68,-24.48 -44.89,-14.59 61.75,90.469 -11.31,77.461 -5.43,-0.848 -23.46,-14.305 -27.24,-17.473 -11.71,-9.324 -49.2,-63.043 -52.14,-64.062 -12.44,-4.067 -17.81,5.937 -26.52,4.074 -0.68,-0.059 -9.66,-11.309 -11.3,-12.16 -13.92,-6.387 -33.71,-12.891 -45.36,-16.336 -54.84,-15.496 -143.16,-16.285 -192.81,4.066 -16.84,7.012 -36.3,26.637 -51.22,36.305 -3.85,-2.543 -5.2,-1.926 -9.28,-3.68 -1.98,-0.789 -5.77,-10.344 -7.52,-12.269 -14.81,-15.039 -33.07,-12.325 -41.56,-4.067 -3.61,52.977 3.85,125.016 11.31,183.481 -3.05,-5.145 -13.01,-9.559 -15.16,-16.403 -5.76,-18.035 -1.63,-32.961 -3.73,-52.918 -2.7,-24.882 -4.97,-53.664 -7.62,-85.609 -1.14,-14.137 -12.05,-38.504 -7.52,-57.047 0.1,-0.793 6.83,-9.441 7.52,-12.219 33.7,0 37.82,2.54 60.55,24.426 12.84,-10.461 25.1,-25.84 41.56,-32.629 54.11,-22.273 138.53,-21.082 198.52,-4.687 12.78,3.566 31.78,10.578 47.22,16.965 l 11.81,9.953 c 7.91,-1.418 18.04,-12.219 42.02,-9.895 0,0 30.07,9.895 30.24,9.895 62.94,2.824 56.94,15.094 93.58,47.039 3.96,-2.375 7.02,2.32 11.37,0 l 13.12,-11.645 c 30.42,3.282 36.8,22.618 36.8,22.618 1.64,5.484 7.46,20.523 10.52,29.851 9.83,30.594 11.71,89.395 15.1,122.305 -0.57,-0.961 -14.59,-15.098 -15.1,-16.403"
        style="fill:#040606;fill-opacity:1;fill-rule:nonzero;stroke:none"
        id="path192" /><path
        d="m 4708.61,651.215 c -10.62,-3.789 -7.68,-22.16 -15.14,-28.496 -6,-4.981 -14.88,0.113 -22.62,-4.129 -5.27,-2.656 -9.85,-17.809 -15.16,-20.297 -15.38,-6.895 -18.32,5.031 -37.83,0 -14.86,-3.848 -34.82,-25.895 -45.34,-36.695 0,0 -2.83,-11.875 -3.79,-16.289 6.95,3.449 30.58,15.781 33.98,16.289 15.77,2.547 22.39,-7.746 37.83,-4.075 13,3.227 19.61,26.18 30.31,32.629 9.38,5.821 15.43,2.09 22.62,8.141 8.02,6.953 20.23,29.121 18.87,44.777 -0.45,4.469 2.27,10.465 -3.73,8.145"
        style="fill:#040606;fill-opacity:1;fill-rule:nonzero;stroke:none"
        id="path194" /><path
        d="m 6005.25,573.809 -3.79,12.211 c 27.77,20.925 17.7,-13.457 3.79,-12.211 m 26.47,0 c 8.47,12.718 10,15.605 9.32,34.492 -8.48,13.629 -16.33,16.965 -30.13,14.191 -13.74,-5.711 -21.61,-0.676 -28.39,-36.472 -10.12,-52.586 38.56,-27.762 49.2,-12.211"
        style="fill:#040606;fill-opacity:1;fill-rule:nonzero;stroke:none"
        id="path196" /><path
        d="m 3884.5,1179.84 h 98.11 v 28.27 h -98.11 v -28.27"
        style="fill:#040606;fill-opacity:1;fill-rule:nonzero;stroke:none"
        id="path198" /><path
        d="m 4054.35,1286.98 h -45.34 v 21.09 h 117.1 v -21.09 h -45.35 v -160.92 h -26.41 v 160.92"
        style="fill:#040606;fill-opacity:1;fill-rule:nonzero;stroke:none"
        id="path200" /><path
        d="m 4634.49,1281.16 h 28.56 v 26.97 h -28.56 z m 2.37,-155.1 h 23.75 v 125.64 h -23.75 v -125.64"
        style="fill:#040606;fill-opacity:1;fill-rule:nonzero;stroke:none"
        id="path202" /><path
        d="m 3043.15,879.594 h 26.4 v 182.066 h -26.4 V 879.594"
        style="fill:#040606;fill-opacity:1;fill-rule:nonzero;stroke:none"
        id="path204" /><path
        d="m 3794.27,1034.8 h 28.49 v 26.86 h -28.49 z m 2.31,-155.206 h 23.75 v 125.636 h -23.75 V 879.594"
        style="fill:#040606;fill-opacity:1;fill-rule:nonzero;stroke:none"
        id="path206" /><path
        d="m 3972.03,933.418 h 98.16 v 28.277 h -98.16 v -28.277"
        style="fill:#040606;fill-opacity:1;fill-rule:nonzero;stroke:none"
        id="path208" /><path
        d="m 4665.14,1061.66 h 26.34 v -76.726 h 71.48 v 76.726 h 26.39 V 879.648 h -26.39 v 84.137 h -71.48 v -84.137 h -26.34 v 182.012"
        style="fill:#040606;fill-opacity:1;fill-rule:nonzero;stroke:none"
        id="path210" /><path
        d="m 5340.48,879.594 h 23.75 v 182.066 h -23.75 V 879.594"
        style="fill:#040606;fill-opacity:1;fill-rule:nonzero;stroke:none"
        id="path212" /><path
        d="m 5503.72,1061.66 h 23.8 V 955.078 l 43.77,50.152 h 29.85 l -46.47,-54.902 50.88,-70.68 h -29.74 l -47.77,64.856 h -0.52 v -64.856 h -23.8 v 182.012"
        style="fill:#040606;fill-opacity:1;fill-rule:nonzero;stroke:none"
        id="path214" /><path
        d="m 4054.13,437.484 h -45.34 v 21.145 h 117.04 v -21.145 h -45.29 V 276.57 h -26.41 v 160.914"
        style="fill:#040606;fill-opacity:1;fill-rule:nonzero;stroke:none"
        id="path216" /><path
        d="m 4404.75,431.668 h 28.5 v 26.91 h -28.5 z m 2.38,-155.098 h 23.75 v 125.633 h -23.75 V 276.57"
        style="fill:#040606;fill-opacity:1;fill-rule:nonzero;stroke:none"
        id="path218" /><path
        d="m 4694.93,330.395 h 98.16 v 28.214 h -98.16 v -28.214"
        style="fill:#040606;fill-opacity:1;fill-rule:nonzero;stroke:none"
        id="path220" /><path
        d="m 4859.02,349.613 h 52.01 l -25.09,84.707 h -0.52 z m 10.34,109.016 h 32.41 l 62.3,-182.059 h -28.04 l -17.93,51.961 h -65.13 l -17.7,-51.961 h -27.99 l 62.08,182.059"
        style="fill:#040606;fill-opacity:1;fill-rule:nonzero;stroke:none"
        id="path222" /><path
        d="m 4988.28,276.57 h 23.74 v 182.008 h -23.74 V 276.57"
        style="fill:#040606;fill-opacity:1;fill-rule:nonzero;stroke:none"
        id="path224" /><path
        d="m 5056.58,276.57 h 23.75 v 182.008 h -23.75 V 276.57"
        style="fill:#040606;fill-opacity:1;fill-rule:nonzero;stroke:none"
        id="path226" /><path
        d="m 3371.33,30.1484 h 23.8 V 212.109 h -23.8 V 30.1484"
        style="fill:#040606;fill-opacity:1;fill-rule:nonzero;stroke:none"
        id="path228" /><path
        d="m 3434.14,212.16 -2.6,-60.101 h 23.19 l 9.77,60.101 h -30.36"
        style="fill:#040606;fill-opacity:1;fill-rule:nonzero;stroke:none"
        id="path230" /><path
        d="m 3497.19,30.1484 h 26.4 V 212.109 h -26.4 V 30.1484"
        style="fill:#040606;fill-opacity:1;fill-rule:nonzero;stroke:none"
        id="path232" /><path
        d="m 4248.24,185.301 h 28.56 v 26.859 h -28.56 z m 2.43,-155.1526 h 23.75 V 155.73 h -23.75 V 30.1484"
        style="fill:#040606;fill-opacity:1;fill-rule:nonzero;stroke:none"
        id="path234" /><path
        d="m 6117.95,504.996 17.63,-18.945 17.64,18.945 -17.64,19.055 -17.63,-19.055"
        style="fill:#040606;fill-opacity:1;fill-rule:nonzero;stroke:none"
        id="path236" /><path
        d="m 6022.72,679.883 17.59,19 -15.72,17.019 17.08,18.375 -17.65,19 -17.64,-19 15.78,-16.961 -17.07,-18.433 17.63,-19"
        style="fill:#040606;fill-opacity:1;fill-rule:nonzero;stroke:none"
        id="path238" /><path
        d="m 5821.88,708.211 17.59,19.004 -15.72,16.957 17.08,18.43 -17.65,19 -17.63,-19 15.77,-16.961 -17.07,-18.426 17.63,-19.004"
        style="fill:#040606;fill-opacity:1;fill-rule:nonzero;stroke:none"
        id="path240" /><path
        d="m 5680.69,771.086 -17.64,19.004 -17.63,-19.004 17.63,-18.996 17.64,18.996"
        style="fill:#040606;fill-opacity:1;fill-rule:nonzero;stroke:none"
        id="path242" /><path
        d="m 5358.12,493.91 -15.38,16.574 -17.64,-19.062 17.64,-18.996 17.47,18.769 15.38,-16.504 17.64,18.997 -17.64,18.992 -17.47,-18.77"
        style="fill:#040606;fill-opacity:1;fill-rule:nonzero;stroke:none"
        id="path244" /><path
        d="m 3567.3,761.02 15.37,-16.622 17.59,19.055 -17.59,19 -17.47,-18.828 -15.32,16.566 -17.69,-19 17.69,-19.058 17.42,18.887"
        style="fill:#040606;fill-opacity:1;fill-rule:nonzero;stroke:none"
        id="path246" /><path
        d="m 3096.64,767.465 15.38,-16.621 17.58,19.054 -17.58,19 -17.48,-18.769 -15.37,16.508 -17.59,-19 17.59,-19 17.47,18.828"
        style="fill:#040606;fill-opacity:1;fill-rule:nonzero;stroke:none"
        id="path248" /><path
        d="m 4656.54,510.309 -15.32,16.574 -17.7,-19.055 17.7,-19.004 17.47,18.828 15.32,-16.562 17.64,18.996 -17.64,19.109 -17.47,-18.886"
        style="fill:#040606;fill-opacity:1;fill-rule:nonzero;stroke:none"
        id="path250" /><path
        d="m 3415.14,486.109 17.58,-18.996 17.71,18.996 -17.71,19.004 -17.58,-19.004"
        style="fill:#040606;fill-opacity:1;fill-rule:nonzero;stroke:none"
        id="path252" /><path
        d="m 5295.53,709.625 17.64,19.059 -15.78,16.957 17.08,18.379 -17.64,19 -17.64,-19 15.77,-16.965 -17.07,-18.371 17.64,-19.059"
        style="fill:#040606;fill-opacity:1;fill-rule:nonzero;stroke:none"
        id="path254" /><path
        d="m 3841.25,699.73 17.59,18.997 -15.73,16.961 17.08,18.378 -17.64,19.055 -17.64,-19.055 15.71,-16.961 -16.95,-18.378 17.58,-18.997"
        style="fill:#040606;fill-opacity:1;fill-rule:nonzero;stroke:none"
        id="path256" /><path
        d="m 4693.12,765.43 17.59,-19 17.64,19 -17.64,19 -17.59,-19"
        style="fill:#040606;fill-opacity:1;fill-rule:nonzero;stroke:none"
        id="path258" /><path
        d="m 4622.84,691.191 17.64,19.055 -15.77,16.969 17.08,18.371 -17.65,19.055 -17.59,-19.055 15.67,-16.961 -17.03,-18.379 17.65,-19.055"
        style="fill:#040606;fill-opacity:1;fill-rule:nonzero;stroke:none"
        id="path260" /><path
        d="m 4085.17,707.363 -17.58,19.055 -17.7,-19.055 17.7,-19 17.58,19"
        style="fill:#040606;fill-opacity:1;fill-rule:nonzero;stroke:none"
        id="path262" /><path
        d="M 1319.29,1292.45 H 15.6523 V 4.05078 H 1319.29 C 1400.36,213.84 1433.68,434.43 1434.41,648.195 c 0.8,232.246 -37.12,454.885 -115.12,644.255"
        style="fill:#c3d1e2;fill-opacity:1;fill-rule:nonzero;stroke:none"
        id="path264" /><path
        d="M 2808.54,4 H 1305.07 c 79.77,207 113.99,424.746 115.07,644.195 1.08,226.899 -36.55,454.995 -115.12,644.195 H 2808.54 V 4"
        style="fill:#203965;fill-opacity:1;fill-rule:nonzero;stroke:none"
        id="path266" /><path
        d="m 2163.66,1056 c 0,11.71 9.56,21.21 21.32,21.21 h 42.58 c 11.77,0 21.33,-9.5 21.33,-21.21 l -0.06,-386.941 c 0,-11.711 -9.55,-21.149 -21.32,-21.149 h -42.24 c -11.83,0 -21.49,9.383 -21.49,21.149 V 828.477 H 1990.89 V 669.059 c 0,-11.711 -9.5,-21.149 -21.27,-21.149 h -42.52 c -11.77,0 -21.32,9.438 -21.32,21.149 V 1056 c 0,11.71 9.55,21.21 21.32,21.21 h 42.64 c 11.77,0 21.32,-9.5 21.32,-21.21 V 900.34 h 172.72 l -0.12,155.66"
        style="fill:#ffffff;fill-opacity:1;fill-rule:nonzero;stroke:none"
        id="path268" /><path
        d="m 2689.66,1056 c 10.47,11.71 12.12,21.32 -2.27,21.21 l -62.99,-0.34 c -11.77,0 -22.97,2.5 -41.9,-16.32 L 2423.48,882.883 V 1055.6 c 0,11.77 -9.04,21.27 -20.81,21.27 h -43.32 c -11.77,0 -21.27,-9.5 -21.27,-21.27 V 668.723 c 0,-11.715 9.5,-21.207 21.27,-21.207 h 43.49 c 11.77,0 20.64,9.492 20.64,21.207 v 90.105 l 73.11,81.305 105.81,-171.41 c 7.16,-11.715 17.28,-21.207 29.05,-21.207 h 61.12 c 11.71,0 15.46,9.492 8.24,21.207 L 2554.13,904.316 2689.66,1056"
        style="fill:#ffffff;fill-opacity:1;fill-rule:nonzero;stroke:none"
        id="path270" /><path
        d="m 1609.01,828.645 h 97.04 l -48.2,149.98 z m 82.49,248.565 c 16.09,0 24.56,-9.5 28.54,-21.21 l 132.13,-386.883 c 3.98,-11.769 -2.33,-21.207 -14.1,-21.207 h -42.25 c -11.76,0 -24.9,9.438 -28.93,21.207 l -28.15,87.098 h -145.37 l -28.02,-87.098 c -3.98,-11.769 -17.12,-21.207 -28.89,-21.207 h -42.3 c -11.76,0 -18.08,9.438 -14.04,21.207 L 1612.25,1056 c 3.98,11.71 12.45,21.21 28.48,21.21 h 50.77"
        style="fill:#ffffff;fill-opacity:1;fill-rule:nonzero;stroke:none"
        id="path272" /><path
        d="M 8.54297,8.53906 H 2803.03 V 1288.13 H 8.54297 Z"
        style="fill:none;stroke:#ffffff;stroke-width:17.0868;stroke-linecap:butt;stroke-linejoin:miter;stroke-miterlimit:4;stroke-dasharray:none;stroke-opacity:1"
        id="path274" /><g
        id="g276"><g
           id="g278"
           clip-path="url(#clipPath282)"><g
             id="g284"
             clip-path="url(#clipPath288)"><path
               d="m 537,67 v 1 h -18 v 1 h -11 v 1 h -11 v 1 h -8 v 1 h -7 v 1 h -7 v 1 h -8 v 1 h -5 v 1 h -5 v 1 h -5 v 1 h -5 v 1 h -6 v 1 h -4 v 1 h -4 v 1 h -4 v 1 h -4 v 1 h -4 v 1 h -4 v 1 h -3 v 1 h -3 v 1 h -3 v 1 h -3 v 1 h -4 v 1 h -3 v 1 h -3 v 1 h -3 v 1 h -3 v 1 h -2 v 1 h -3 v 1 h -3 v 1 h -2 v 1 h -3 v 1 h -2 v 1 h -3 v 1 h -2 v 1 h -3 v 1 h -2 v 1 h -2 v 1 h -2 v 1 h -2 v 1 h -2 v 1 h -2 v 1 h -3 v 1 h -2 v 1 h -2 v 1 h -2 v 1 h -2 v 1 h -2 v 1 h -2 v 1 h -1 v 1 h -2 v 1 h -2 v 1 h -2 v 1 h -1 v 1 h -2 v 1 h -2 v 1 h -2 v 1 h -1 v 1 h -2 v 1 h -2 v 1 h -2 v 1 h -1 v 1 h -1 v 1 h -2 v 1 h -1 v 1 h -2 v 1 h -1 v 1 h -2 v 1 h -1 v 1 h -2 v 1 h -1 v 1 h -1 v 1 h -2 v 1 h -1 v 1 h -2 v 1 h -1 v 1 h -2 v 1 h -1 v 1 h -1 v 1 h -1 v 1 h -1 v 1 h -2 v 1 h -1 v 1 h -1 v 1 h -1 v 1 h -2 v 1 h -1 v 1 h -1 v 1 h -1 v 1 h -1 v 1 h -2 v 1 h -1 v 1 h -1 v 1 h -1 v 1 h -1 v 1 h -1 v 1 h -1 v 1 h -1 v 1 h -1 v 1 h -1 v 1 h -1 v 1 h -1 v 1 h -1 v 1 h -1 v 1 h -1 v 1 h -1 v 1 h -2 v 1 h -1 v 1 h -1 v 1 h -1 v 1 h -1 v 1 h -1 v 1 h -1 v 1 h -1 v 1 h -1 v 2 h -1 v 1 h -1 v 1 h -1 v 1 h -1 v 1 h -1 v 2 h -1 v 1 h -1 v 1 h -1 v 1 h -1 v 1 h -1 v 1 h -1 v 2 h -1 v 1 h -1 v 1 h -1 v 1 h -1 v 1 h -1 v 2 h -1 v 1 h -1 v 1 h -1 v 1 h -1 v 2 h -1 v 1 h -1 v 2 h -1 v 1 h -1 v 1 h -1 v 2 h -1 v 1 h -1 v 2 h -1 v 1 h -1 v 2 h -1 v 1 h -1 v 1 h -1 v 2 h -1 v 1 h -1 v 2 h -1 v 1 h -1 v 2 h -1 v 1 h -1 v 2 h -1 v 2 h -1 v 1 h -1 v 2 h -1 v 2 h -1 v 1 h -1 v 2 h -1 v 2 h -1 v 1 h -1 v 2 h -1 v 2 h -1 v 2 h -1 v 2 h -1 v 2 h -1 v 1 h -1 v 2 h -1 v 2 h -1 v 2 h -1 v 2 h -1 v 3 h -1 v 2 h -1 v 2 h -1 v 2 h -1 v 3 h -1 v 2 h -1 v 2 h -1 v 2 h -1 v 3 h -1 v 2 h -1 v 3 h -1 v 3 h -1 v 3 h -1 v 3 h -1 v 3 h -1 v 3 h -1 v 3 h -1 v 2 h -1 v 3 h -1 v 4 h -1 v 4 h -1 v 4 h -1 v 4 h -1 v 5 h -1 v 4 h -1 v 4 h -1 v 7 h -1 v 6 h -1 v 7 h -1 v 8 h -1 v 17 h -1 v 26 h 1 v 15 h 1 v 10 h 1 v 8 h 1 v 6 h 1 v 5 h 1 v 6 h 1 v 5 h 1 v 4 h 1 v 4 h 1 v 4 h 1 v 4 h 1 v 3 h 1 v 4 h 1 v 3 h 1 v 3 h 1 v 4 h 1 v 2 h 1 v 3 h 1 v 3 h 1 v 3 h 1 v 3 h 1 v 2 h 1 v 3 h 1 v 2 h 1 v 2 h 1 v 3 h 1 v 2 h 1 v 2 h 1 v 2 h 1 v 3 h 1 v 2 h 1 v 2 h 1 v 2 h 1 v 2 h 1 v 2 h 1 v 1 h 1 v 2 h 1 v 2 h 1 v 1 h 109 v -2 h -1 v -1 h -1 v -2 h -1 v -1 h -1 v -2 h -1 v -1 h -1 v -2 h -1 v -1 h -1 v -2 h -1 v -1 h -1 v -2 h -1 v -1 h -1 v -2 h -1 v -1 h -1 v -2 h -1 v -2 h -1 v -1 h -1 v -2 h -1 v -2 h -1 v -2 h -1 v -2 h -1 v -1 h -1 v -2 h -1 v -2 h -1 v -2 h -1 v -2 h -1 v -2 h -1 v -2 h -1 v -2 h -1 v -2 h -1 v -2 h -1 v -3 h -1 v -2 h -1 v -2 h -1 v -2 h -1 v -3 h -1 v -2 h -1 v -3 h -1 v -2 h -1 v -2 h -1 v -3 h -1 v -3 h -1 v -3 h -1 v -3 h -1 v -2 h -1 v -3 h -1 v -3 h -1 v -4 h -1 v -3 h -1 v -3 h -1 v -4 h -1 v -3 h -1 v -5 h -1 v -4 h -1 v -4 h -1 v -4 h -1 v -5 h -1 v -6 h -1 v -5 h -1 v -6 h -1 v -8 h -1 v -8 h -1 v -12 h -1 v -27 h -1 v -6 h 1 v -17 h 1 v -10 h 1 v -7 h 1 v -6 h 1 v -6 h 1 v -4 h 1 v -4 h 1 v -5 h 1 v -4 h 1 v -3 h 1 v -3 h 1 v -3 h 1 v -3 h 1 v -3 h 1 v -3 h 1 v -3 h 1 v -2 h 1 v -2 h 1 v -3 h 1 v -2 h 1 v -3 h 1 v -2 h 1 v -2 h 1 v -2 h 1 v -2 h 1 v -2 h 1 v -2 h 1 v -2 h 1 v -2 h 1 v -1 h 1 v -2 h 1 v -2 h 1 v -1 h 1 v -2 h 1 v -2 h 1 v -1 h 1 v -2 h 1 v -2 h 1 v -1 h 1 v -1 h 1 v -2 h 1 v -1 h 1 v -2 h 1 v -1 h 1 v -2 h 1 v -1 h 1 v -1 h 1 v -2 h 1 v -1 h 1 v -1 h 1 v -1 h 1 v -2 h 1 v -1 h 1 v -1 h 1 v -1 h 1 v -2 h 1 v -1 h 1 v -1 h 1 v -1 h 1 v -1 h 1 v -1 h 1 v -1 h 1 v -1 h 1 v -1 h 1 v -2 h 1 v -1 h 1 v -1 h 1 v -1 h 1 v -1 h 1 v -1 h 1 v -1 h 1 v -1 h 1 v -1 h 1 v -1 h 1 v -1 h 1 v -1 h 1 v -1 h 2 v -1 h 1 v -1 h 1 v -1 h 1 v -1 h 1 v -1 h 1 v -1 h 1 v -1 h 2 v -1 h 1 v -1 h 1 v -1 h 1 v -1 h 1 v -1 h 1 v -1 h 2 v -1 h 1 v -1 h 1 v -1 h 2 v -1 h 1 v -1 h 1 v -1 h 1 v -1 h 2 v -1 h 1 v -1 h 1 v -1 h 2 v -1 h 1 v -1 h 2 v -1 h 1 v -1 h 1 v -1 h 2 v -1 h 1 v -1 h 2 v -1 h 1 v -1 h 2 v -1 h 2 v -1 h 1 v -1 h 2 v -1 h 1 v -1 h 2 v -1 h 2 v -1 h 1 v -1 h 2 v -1 h 2 v -1 h 1 v -1 h 2 v -1 h 2 v -1 h 2 v -1 h 1 v -1 h 2 v -1 h 2 v -1 h 2 v -1 h 2 v -1 h 2 v -1 h 2 v -1 h 2 v -1 h 2 v -1 h 2 v -1 h 2 v -1 h 2 v -1 h 2 v -1 h 2 v -1 h 2 v -1 h 3 v -1 h 2 v -1 h 2 v -1 h 3 v -1 h 2 v -1 h 2 v -1 h 3 v -1 h 2 v -1 h 3 v -1 h 2 v -1 h 3 v -1 h 3 v -1 h 2 v -1 h 3 v -1 h 3 v -1 h 3 v -1 h 3 v -1 h 3 v -1 h 3 v -1 h 3 v -1 h 3 v -1 h 3 v 1 h -2 v 1 h -3 v 1 h -3 v 1 h -3 v 1 h -2 v 1 h -3 v 1 h -3 v 1 h -2 v 1 h -3 v 1 h -2 v 1 h -2 v 1 h -3 v 1 h -2 v 1 h -3 v 1 h -2 v 1 h -2 v 1 h -2 v 1 h -2 v 1 h -2 v 1 h -2 v 1 h -2 v 1 h -3 v 1 h -2 v 1 h -2 v 1 h -2 v 1 h -2 v 1 h -1 v 1 h -2 v 1 h -2 v 1 h -2 v 1 h -2 v 1 h -1 v 1 h -2 v 1 h -2 v 1 h -2 v 1 h -2 v 1 h -1 v 1 h -2 v 1 h -1 v 1 h -2 v 1 h -2 v 1 h -1 v 1 h -2 v 1 h -1 v 1 h -2 v 1 h -1 v 1 h -2 v 1 h -1 v 1 h -2 v 1 h -1 v 1 h -2 v 1 h -1 v 1 h -1 v 1 h -2 v 1 h -1 v 1 h -1 v 1 h -2 v 1 h -1 v 1 h -1 v 1 h -2 v 1 h -1 v 1 h -1 v 1 h -2 v 1 h -1 v 1 h -1 v 1 h -1 v 1 h -1 v 1 h -2 v 1 h -1 v 1 h -1 v 1 h -1 v 1 h -1 v 1 h -1 v 1 h -1 v 1 h -2 v 1 h -1 v 1 h -1 v 1 h -1 v 1 h -1 v 1 h -1 v 1 h -1 v 1 h -1 v 1 h -1 v 1 h -1 v 1 h -1 v 1 h -1 v 1 h -1 v 1 h -1 v 1 h -1 v 1 h -1 v 1 h -1 v 1 h -1 v 2 h -1 v 1 h -1 v 1 h -1 v 1 h -1 v 1 h -1 v 1 h -1 v 1 h -1 v 2 h -1 v 1 h -1 v 1 h -1 v 2 h -1 v 1 h -1 v 1 h -1 v 1 h -1 v 2 h -1 v 1 h -1 v 1 h -1 v 1 h -1 v 2 h -1 v 1 h -1 v 2 h -1 v 1 h -1 v 2 h -1 v 1 h -1 v 2 h -1 v 2 h -1 v 1 h -1 v 2 h -1 v 1 h -1 v 2 h -1 v 2 h -1 v 1 h -1 v 2 h -1 v 2 h -1 v 2 h -1 v 2 h -1 v 2 h -1 v 2 h -1 v 2 h -1 v 2 h -1 v 2 h -1 v 3 h -1 v 2 h -1 v 2 h -1 v 3 h -1 v 3 h -1 v 2 h -1 v 3 h -1 v 3 h -1 v 3 h -1 v 3 h -1 v 3 h -1 v 4 h -1 v 4 h -1 v 5 h -1 v 4 h -1 v 5 h -1 v 5 h -1 v 6 h -1 v 9 h -1 v 9 h -1 v 40 h 1 v 15 h 1 v 9 h 1 v 8 h 1 v 7 h 1 v 5 h 1 v 6 h 1 v 5 h 1 v 5 h 1 v 4 h 1 v 4 h 1 v 4 h 1 v 3 h 1 v 4 h 1 v 4 h 1 v 3 h 1 v 3 h 1 v 3 h 1 v 3 h 1 v 3 h 1 v 3 h 1 v 3 h 1 v 2 h 1 v 3 h 1 v 2 h 1 v 3 h 1 v 2 h 1 v 3 h 1 v 2 h 1 v 2 h 1 v 2 h 1 v 3 h 1 v 2 h 1 v 2 h 1 v 2 h 1 v 2 h 1 v 2 h 1 v 2 h 1 v 2 h 1 v 2 h 1 v 2 h 1 v 2 h 1 v 2 h 1 v 1 h 1 v 2 h 1 v 2 h 1 v 2 h 1 v 1 h 1 v 2 h 1 v 2 h 1 v 1 h 1 v 2 h 1 v 1 h 1 v 2 h 1 v 1 h 1 v 2 h 1 v 1 h 1 v 2 h 1 v 1 h 1 v 2 h 1 v 1 h 1 v 2 h 1 v 1 h 1 v 1 h 1 v 2 h 1 v 1 h 1 v 1 h 1 v 1 h 1 v 2 h 1 v 1 h 1 v 1 h 125 v -2 h -2 v -1 h -1 v -1 h -2 v -1 h -1 v -1 h -1 v -1 h -2 v -1 h -1 v -1 h -2 v -1 h -1 v -1 h -1 v -1 h -1 v -1 h -2 v -1 h -1 v -1 h -1 v -1 h -1 v -1 h -1 v -1 h -2 v -1 h -1 v -1 h -1 v -1 h -1 v -1 h -1 v -1 h -1 v -1 h -1 v -1 h -1 v -1 h -1 v -1 h -2 v -1 h -1 v -1 h -1 v -1 h -1 v -1 h -1 v -1 h -1 v -1 h -1 v -1 h -1 v -1 h -1 v -2 h -1 v -1 h -1 v -1 h -1 v -1 h -1 v -1 h -1 v -1 h -1 v -1 h -1 v -1 h -1 v -1 h -1 v -2 h -1 v -1 h -1 v -1 h -1 v -1 h -1 v -1 h -1 v -1 h -1 v -2 h -1 v -1 h -1 v -1 h -1 v -2 h -1 v -1 h -1 v -1 h -1 v -2 h -1 v -1 h -1 v -1 h -1 v -2 h -1 v -1 h -1 v -1 h -1 v -2 h -1 v -1 h -1 v -2 h -1 v -2 h -1 v -1 h -1 v -2 h -1 v -1 h -1 v -2 h -1 v -1 h -1 v -2 h -1 v -2 h -1 v -1 h -1 v -2 h -1 v -2 h -1 v -2 h -1 v -2 h -1 v -2 h -1 v -2 h -1 v -2 h -1 v -1 h -1 v -2 h -1 v -3 h -1 v -2 h -1 v -2 h -1 v -3 h -1 v -2 h -1 v -2 h -1 v -3 h -1 v -2 h -1 v -2 h -1 v -3 h -1 v -3 h -1 v -3 h -1 v -3 h -1 v -3 h -1 v -3 h -1 v -3 h -1 v -4 h -1 v -4 h -1 v -5 h -1 v -4 h -1 v -4 h -1 v -4 h -1 v -7 h -1 v -7 h -1 v -7 h -1 v -9 h -1 v -15 h -1 v -22 h 1 v -18 h 1 v -11 h 1 v -8 h 1 v -6 h 1 v -7 h 1 v -5 h 1 v -4 h 1 v -4 h 1 v -5 h 1 v -4 h 1 v -3 h 1 v -3 h 1 v -4 h 1 v -3 h 1 v -3 h 1 v -3 h 1 v -2 h 1 v -3 h 1 v -2 h 1 v -3 h 1 v -2 h 1 v -3 h 1 v -2 h 1 v -2 h 1 v -2 h 1 v -2 h 1 v -2 h 1 v -2 h 1 v -2 h 1 v -2 h 1 v -1 h 1 v -2 h 1 v -2 h 1 v -2 h 1 v -1 h 1 v -2 h 1 v -2 h 1 v -1 h 1 v -1 h 1 v -2 h 1 v -1 h 1 v -2 h 1 v -1 h 1 v -2 h 1 v -1 h 1 v -1 h 1 v -2 h 1 v -1 h 1 v -1 h 1 v -1 h 1 v -2 h 1 v -1 h 1 v -1 h 1 v -1 h 1 v -2 h 1 v -1 h 1 v -1 h 1 v -1 h 1 v -1 h 1 v -1 h 1 v -1 h 1 v -1 h 1 v -1 h 1 v -1 h 1 v -1 h 1 v -1 h 1 v -1 h 1 v -1 h 1 v -1 h 1 v -1 h 1 v -1 h 1 v -1 h 2 v -1 h 1 v -1 h 1 v -1 h 1 v -1 h 1 v -1 h 1 v -1 h 2 v -1 h 1 v -1 h 1 v -1 h 2 v -1 h 1 v -1 h 1 v -1 h 1 v -1 h 2 v -1 h 1 v -1 h 2 v -1 h 1 v -1 h 2 v -1 h 1 v -1 h 2 v -1 h 1 v -1 h 2 v -1 h 2 v -1 h 1 v -1 h 2 v -1 h 2 v -1 h 1 v -1 h 2 v -1 h 2 v -1 h 2 v -1 h 2 v -1 h 2 v -1 h 2 v -1 h 2 v -1 h 2 v -1 h 2 v -1 h 2 v -1 h 2 v -1 h 3 v -1 h 2 v -1 h 3 v -1 h 2 v -1 h 3 v -1 h 3 v -1 h 2 v -1 h 3 v -1 h 3 v -1 h 3 v -1 h 4 v -1 h 3 v -1 h 4 v -1 h 4 v -1 h 3 v -1 h 5 v -1 h 4 v -1 h 5 v -1 h 6 v -1 h 6 v -1 h 7 v -1 h 9 v -1 h 13 v -1 h 12 v 1 h 5 v 1 h 4 v 1 h 4 v 1 h 3 v 1 h 3 v 1 h 3 v 1 h 3 v 1 h 2 v 1 h 3 v 1 h 2 v 1 h 3 v 1 h 2 v 1 h 2 v 1 h 2 v 1 h 2 v 1 h 2 v 1 h 2 v 1 h 2 v 1 h 2 v 1 h 1 v 1 h 2 v 1 h 2 v 1 h 1 v 1 h 2 v 1 h 2 v 1 h 1 v 1 h 2 v 1 h 1 v 1 h 2 v 1 h 1 v 1 h 1 v 1 h 2 v 1 h 1 v 1 h 1 v 1 h 2 v 1 h 1 v 1 h 1 v 1 h 1 v 1 h 1 v 1 h 2 v 1 h 1 v 1 h 1 v 1 h 1 v 1 h 1 v 1 h 1 v 1 h 1 v 1 h 1 v 1 h 1 v 1 h 1 v 1 h 1 v 1 h 1 v 2 h 1 v 1 h 1 v 1 h 1 v 1 h 1 v 2 h 1 v 1 h 1 v 1 h 1 v 2 h 1 v 1 h 1 v 2 h 1 v 1 h 1 v 2 h 1 v 1 h 1 v 2 h 1 v 2 h 1 v 2 h 1 v 2 h 1 v 2 h 1 v 2 h 1 v 3 h 1 v 3 h 1 v 3 h 1 v 3 h 1 v 4 h 1 v 5 h 1 v 8 h 1 v 10 h -1 v 10 h -1 v 4 h -1 v 5 h -1 v 3 h -1 v 3 h -1 v 4 h -1 v 2 h -1 v 2 h -1 v 3 h -1 v 2 h -1 v 2 h -1 v 2 h -1 v 2 h -1 v 2 h -1 v 2 h -1 v 2 h -1 v 1 h -1 v 2 h -1 v 2 h -1 v 1 h -1 v 2 h -1 v 1 h -1 v 2 h -1 v 1 h -1 v 2 h -1 v 1 h -1 v 2 h -1 v 1 h -1 v 1 h -1 v 1 h -1 v 2 h -1 v 1 h -1 v 1 h -1 v 1 h -1 v 2 h -1 v 1 h -1 v 1 h -1 v 1 h -1 v 1 h -1 v 1 h -1 v 2 h -1 v 1 h -1 v 1 h -1 v 1 h -1 v 1 h -1 v 1 h -1 v 1 h -1 v 1 h -1 v 1 h -1 v 1 h -1 v 1 h -1 v 1 h -1 v 1 h -1 v 1 h -1 v 1 h -1 v 1 h -1 v 1 h -1 v 1 h -1 v 1 h -2 v 1 h -1 v 1 h -1 v 1 h -1 v 1 h -1 v 1 h -1 v 1 h -1 v 1 h -2 v 1 h -1 v 1 h -1 v 1 h -1 v 1 h -1 v 1 h -2 v 1 h -1 v 1 h -1 v 1 h -89 v 1 h -1 v 2 h -1 v 2 h -1 v 1 h -1 v 2 h -1 v 2 h -1 v 3 h -1 v 2 h -1 v 2 h -1 v 2 h -1 v 2 h -1 v 2 h -1 v 2 h -1 v 2 h -1 v 3 h -1 v 2 h -1 v 3 h -1 v 3 h -1 v 3 h -1 v 2 h -1 v 3 h -1 v 3 h -1 v 2 h -1 v 5 h -1 v 4 h -1 v 4 h -1 v 4 h -1 v 4 h -1 v 8 h -1 v 9 h -1 v 29 h 1 v 6 h 1 v 7 h 1 v 5 h 1 v 4 h 1 v 3 h 1 v 4 h 1 v 4 h 1 v 2 h 1 v 2 h 1 v 3 h 1 v 2 h 1 v 3 h 1 v 2 h 1 v 2 h 1 v 2 h 1 v 2 h 1 v 2 h 1 v 2 h 1 v 2 h 1 v 2 h 1 v 1 h 1 v 2 h 1 v 1 h 1 v 2 h 1 v 1 h 1 v 2 h 1 v 1 h 1 v 2 h 1 v 1 h 1 v 1 h 1 v 2 h 1 v 1 h 1 v 1 h 1 v 2 h 1 v 1 h 1 v 1 h 1 v 1 h 1 v 1 h 1 v 1 h 1 v 2 h 1 v 1 h 1 v 1 h 1 v 1 h 1 v 1 h -1 v -1 h -1 v -1 h -1 v -1 h -2 v -1 h -1 v -1 h -1 v -1 h -1 v -1 h -1 v -1 h -1 v -1 h -1 v -1 h -1 v -1 h -1 v -1 h -1 v -1 h -1 v -1 h -1 v -1 h -1 v -1 h -1 v -1 h -1 v -1 h -1 v -1 h -1 v -1 h -1 v -1 h -1 v -1 h -1 v -1 h -1 v -2 h -1 v -1 h -1 v -1 h -1 v -2 h -1 v -1 h -1 v -1 h -1 v -2 h -1 v -1 h -1 v -1 h -1 v -2 h -1 v -1 h -1 v -2 h -1 v -1 h -1 v -2 h -1 v -2 h -1 v -2 h -1 v -2 h -1 v -2 h -1 v -1 h -1 v -2 h -1 v -2 h -1 v -3 h -1 v -2 h -1 v -3 h -1 v -3 h -1 v -2 h -1 v -3 h -1 v -3 h -1 v -4 h -1 v -4 h -1 v -4 h -1 v -4 h -1 v -7 h -1 v -8 h -1 v -36 h 1 v -8 h 1 v -7 h 1 v -6 h 1 v -5 h 1 v -5 h 1 v -4 h 1 v -3 h 1 v -4 h 1 v -3 h 1 v -4 h 1 v -3 h 1 v -3 h 1 v -2 h 1 v -3 h 1 v -3 h 1 v -2 h 1 v -3 h -66 v 40 h 1 v 13 h 1 v 11 h 1 v 5 h 1 v 6 h 1 v 5 h 1 v 6 h 1 v 5 h 1 v 3 h 1 v 4 h 1 v 3 h 1 v 3 h 1 v 4 h 1 v 3 h 1 v 4 h 1 v 2 h 1 v 3 h 1 v 2 h 1 v 3 h 1 v 2 h 1 v 2 h 1 v 3 h 1 v 2 h 1 v 2 h 1 v 3 h 1 v 2 h 1 v 2 h 1 v 1 h 1 v 2 h 1 v 2 h 1 v 2 h 1 v 1 h 1 v 2 h 1 v 2 h 1 v 2 h 1 v 2 h 1 v 1 h 1 v 2 h 1 v 1 h 1 v 2 h 1 v 1 h 1 v 1 h 1 v 2 h 1 v 1 h 1 v 1 h 1 v 2 h 1 v 1 h 1 v 2 h 1 v 1 h 1 v 1 h 1 v 2 h 1 v 1 h 1 v 1 h 1 v 1 h 1 v 1 h 1 v 1 h 1 v 1 h 1 v 1 h 1 v 1 h 1 v 1 h 1 v 2 h 1 v 1 h 1 v 1 h 1 v 1 h 1 v 1 h 1 v 1 h 1 v 1 h 1 v 1 h 1 v 1 h 1 v 1 h 2 v 1 h 1 v 1 h 1 v 1 h 1 v 1 h 1 v 1 h 1 v 1 h 1 v 1 h 2 v 1 h 1 v 1 h 1 v 1 h 1 v 1 h 1 v 1 h 2 v 1 h 1 v 1 h 1 v 1 h 2 v 1 h 1 v 1 h 2 v 1 h 1 v 1 h 2 v 1 h 1 v 1 h 2 v 1 h 1 v 1 h 2 v 1 h 1 v 1 h 2 v 1 h 2 v 1 h 1 v 1 h 2 v 1 h 2 v 1 h 2 v 1 h 2 v 1 h 2 v 1 h 2 v 1 h 1 v 1 h 2 v 1 h 3 v 1 h 2 v 1 h 2 v 1 h 3 v 1 h 2 v 1 h 2 v 1 h 3 v 1 h 2 v 1 h 3 v 1 h 3 v 1 h 3 v 1 h 3 v 1 h 4 v 1 h 3 v 1 h 3 v 1 h 3 v 1 h 5 v 1 h 5 v 1 h 4 v 1 h 5 v 1 h 5 v 1 h 9 v 1 h 8 v 1 h 10 v 1 h 51 v -1 h 19 v -1 h 11 v -1 h 10 v -1 h 9 v -1 h 7 v -1 h 7 v -1 h 7 v -1 h 5 v -1 h 6 v -1 h 5 v -1 h 5 v -1 h 5 v -1 h 4 v -1 h 4 v -1 h 4 v -1 h 4 v -1 h 4 v -1 h 4 v -1 h 4 v -1 h 3 v -1 h 3 v -1 h 3 v -1 h 3 v -1 h 3 v -1 h 4 v -1 h 3 v -1 h 3 v -1 h 2 v -1 h 3 v -1 h 2 v -1 h 3 v -1 h 2 v -1 h 3 v -1 h 2 v -1 h 3 v -1 h 3 v -1 h 2 v -1 h 2 v -1 h 2 v -1 h 2 v -1 h 2 v -1 h 2 v -1 h 2 v -1 h 2 v -1 h 2 v -1 h 3 v -1 h 2 v -1 h 2 v -1 h 1 v -1 h 2 v -1 h 2 v -1 h 2 v -1 h 1 v -1 h 2 v -1 h 2 v -1 h 1 v -1 h 2 v -1 h 2 v -1 h 2 v -1 h 1 v -1 h 2 v -1 h 2 v -1 h 1 v -1 h 2 v -1 h 1 v -1 h 1 v -1 h 2 v -1 h 1 v -1 h 2 v -1 h 1 v -1 h 2 v -1 h 1 v -1 h 2 v -1 h 1 v -1 h 1 v -1 h 2 v -1 h 1 v -1 h 1 v -1 h 2 v -1 h 1 v -1 h 1 v -1 h 1 v -1 h 2 v -1 h 1 v -1 h 1 v -1 h 1 v -1 h 1 v -1 h 2 v -1 h 1 v -1 h 1 v -1 h 1 v -1 h 1 v -1 h 2 v -1 h 1 v -1 h 1 v -1 h 1 v -1 h 1 v -1 h 1 v -1 h 1 v -1 h 1 v -1 h 1 v -1 h 1 v -1 h 1 v -1 h 1 v -1 h 1 v -1 h 1 v -1 h 1 v -1 h 1 v -1 h 1 v -1 h 1 v -1 h 1 v -1 h 1 v -1 h 1 v -1 h 1 v -1 h 1 v -1 h 1 v -1 h 1 v -1 h 1 v -1 h 1 v -2 h 1 v -1 h 1 v -1 h 1 v -1 h 1 v -1 h 1 v -1 h 1 v -2 h 1 v -1 h 1 v -1 h 1 v -1 h 1 v -1 h 1 v -2 h 1 v -1 h 1 v -1 h 1 v -1 h 1 v -1 h 1 v -2 h 1 v -1 h 1 v -2 h 1 v -1 h 1 v -2 h 1 v -1 h 1 v -1 h 1 v -2 h 1 v -1 h 1 v -2 h 1 v -1 h 1 v -2 h 1 v -1 h 1 v -1 h 1 v -2 h 1 v -1 h 1 v -2 h 1 v -1 h 1 v -2 h 1 v -2 h 1 v -1 h 1 v -2 h 1 v -2 h 1 v -1 h 1 v -2 h 1 v -2 h 1 v -1 h 1 v -2 h 1 v -2 h 1 v -1 h 1 v -2 h 1 v -2 h 1 v -2 h 1 v -2 h 1 v -2 h 1 v -2 h 1 v -2 h 1 v -2 h 1 v -2 h 1 v -3 h 1 v -2 h 1 v -2 h 1 v -2 h 1 v -3 h 1 v -2 h 1 v -2 h 1 v -2 h 1 v -3 h 1 v -3 h 1 v -3 h 1 v -3 h 1 v -3 h 1 v -3 h 1 v -3 h 1 v -3 h 1 v -2 h 1 v -3 h 1 v -5 h 1 v -4 h 1 v -4 h 1 v -4 h 1 v -4 h 1 v -4 h 1 v -5 h 1 v -7 h 1 v -7 h 1 v -7 h 1 v -11 h 1 v -17 h 1 v -5 h -1 v -26 h -1 v -10 h -1 v -10 h -1 v -5 h -1 v -6 h -1 v -6 h -1 v -5 h -1 v -4 h -1 v -4 h -1 v -5 h -1 v -4 h -1 v -3 h -1 v -3 h -1 v -4 h -1 v -3 h -1 v -3 h -1 v -3 h -1 v -3 h -1 v -3 h -1 v -3 h -1 v -3 h -1 v -2 h -1 v -3 h -1 v -2 h -1 v -2 h -1 v -3 h -1 v -2 h -1 v -2 h -1 v -3 h -1 v -2 h -1 v -2 h -1 v -2 h -1 v -2 h -1 v -2 h -1 v -2 h -1 v -2 h -1 v -1 h -1 v -2 h -1 V 90 H 942 v 2 h 1 v 2 h 1 v 1 h 1 v 1 h 1 v 2 h 1 v 1 h 1 v 2 h 1 v 1 h 1 v 2 h 1 v 1 h 1 v 2 h 1 v 1 h 1 v 2 h 1 v 2 h 1 v 1 h 1 v 2 h 1 v 2 h 1 v 2 h 1 v 1 h 1 v 2 h 1 v 2 h 1 v 2 h 1 v 2 h 1 v 2 h 1 v 1 h 1 v 2 h 1 v 2 h 1 v 2 h 1 v 3 h 1 v 2 h 1 v 2 h 1 v 2 h 1 v 2 h 1 v 2 h 1 v 3 h 1 v 2 h 1 v 3 h 1 v 2 h 1 v 2 h 1 v 3 h 1 v 3 h 1 v 2 h 1 v 3 h 1 v 3 h 1 v 3 h 1 v 3 h 1 v 3 h 1 v 3 h 1 v 4 h 1 v 3 h 1 v 3 h 1 v 4 h 1 v 4 h 1 v 4 h 1 v 4 h 1 v 5 h 1 v 5 h 1 v 6 h 1 v 5 h 1 v 6 h 1 v 8 h 1 v 8 h 1 v 14 h 1 v 46 h -1 v 10 h -1 v 7 h -1 v 6 h -1 v 6 h -1 v 5 h -1 v 4 h -1 v 4 h -1 v 4 h -1 v 4 h -1 v 3 h -1 v 3 h -1 v 3 h -1 v 3 h -1 v 3 h -1 v 2 h -1 v 3 h -1 v 2 h -1 v 3 h -1 v 2 h -1 v 3 h -1 v 2 h -1 v 2 h -1 v 2 h -1 v 2 h -1 v 2 h -1 v 2 h -1 v 2 h -1 v 2 h -1 v 1 h -1 v 2 h -1 v 2 h -1 v 1 h -1 v 2 h -1 v 2 h -1 v 1 h -1 v 2 h -1 v 1 h -1 v 2 h -1 v 1 h -1 v 2 h -1 v 1 h -1 v 2 h -1 v 1 h -1 v 2 h -1 v 1 h -1 v 1 h -1 v 2 h -1 v 1 h -1 v 1 h -1 v 1 h -1 v 2 h -1 v 1 h -1 v 1 h -1 v 1 h -1 v 2 h -1 v 1 h -1 v 1 h -1 v 1 h -1 v 1 h -1 v 1 h -1 v 1 h -1 v 1 h -1 v 2 h -1 v 1 h -1 v 1 h -1 v 1 h -1 v 1 h -1 v 1 h -1 v 1 h -1 v 1 h -1 v 1 h -1 v 1 h -1 v 1 h -1 v 1 h -1 v 1 h -1 v 1 h -1 v 1 h -2 v 1 h -1 v 1 h -1 v 1 h -1 v 1 h -1 v 1 h -1 v 1 h -1 v 1 h -2 v 1 h -1 v 1 h -1 v 1 h -1 v 1 h -1 v 1 h -2 v 1 h -1 v 1 h -1 v 1 h -1 v 1 h -2 v 1 h -1 v 1 h -1 v 1 h -1 v 1 h -2 v 1 h -1 v 1 h -2 v 1 h -1 v 1 h -1 v 1 h -2 v 1 h -1 v 1 h -2 v 1 h -1 v 1 h -2 v 1 h -1 v 1 h -2 v 1 h -1 v 1 h -2 v 1 h -1 v 1 h -2 v 1 h -2 v 1 h -1 v 1 h -2 v 1 h -2 v 1 h -1 v 1 h -2 v 1 h -2 v 1 h -1 v 1 h -2 v 1 h -2 v 1 h -2 v 1 h -2 v 1 h -2 v 1 h -1 v 1 h -2 v 1 h -2 v 1 h -2 v 1 h -2 v 1 h -2 v 1 h -2 v 1 h -2 v 1 h -3 v 1 h -2 v 1 h -2 v 1 h -2 v 1 h -2 v 1 h -3 v 1 h -2 v 1 h -2 v 1 h -3 v 1 h -2 v 1 h -3 v 1 h -2 v 1 h -3 v 1 h -2 v 1 h -3 v 1 h -3 v 1 h -3 v 1 h -2 v 1 h -3 v 1 h -3 v 1 h -3 v 1 h -3 v 1 h -3 v 1 h -4 v 1 h -3 v 1 h -3 v 1 h -4 v 1 h -4 v 1 h -3 v 1 h -4 v 1 h -3 v -1 h 3 v -1 h 3 v -1 h 3 v -1 h 3 v -1 h 3 v -1 h 3 v -1 h 3 v -1 h 2 v -1 h 3 v -1 h 3 v -1 h 2 v -1 h 3 v -1 h 3 v -1 h 2 v -1 h 3 v -1 h 2 v -1 h 2 v -1 h 3 v -1 h 2 v -1 h 2 v -1 h 3 v -1 h 2 v -1 h 2 v -1 h 2 v -1 h 2 v -1 h 2 v -1 h 2 v -1 h 2 v -1 h 3 v -1 h 2 v -1 h 2 v -1 h 2 v -1 h 2 v -1 h 1 v -1 h 2 v -1 h 2 v -1 h 2 v -1 h 2 v -1 h 2 v -1 h 1 v -1 h 2 v -1 h 2 v -1 h 2 v -1 h 1 v -1 h 2 v -1 h 2 v -1 h 1 v -1 h 2 v -1 h 1 v -1 h 2 v -1 h 2 v -1 h 1 v -1 h 2 v -1 h 1 v -1 h 2 v -1 h 1 v -1 h 2 v -1 h 1 v -1 h 2 v -1 h 1 v -1 h 1 v -1 h 2 v -1 h 1 v -1 h 1 v -1 h 2 v -1 h 1 v -1 h 2 v -1 h 1 v -1 h 1 v -1 h 2 v -1 h 1 v -1 h 1 v -1 h 1 v -1 h 1 v -1 h 2 v -1 h 1 v -1 h 1 v -1 h 1 v -1 h 1 v -1 h 1 v -1 h 2 v -1 h 1 v -1 h 1 v -1 h 1 v -1 h 1 v -1 h 1 v -1 h 1 v -1 h 1 v -1 h 1 v -1 h 1 v -1 h 1 v -1 h 1 v -1 h 1 v -1 h 1 v -1 h 1 v -1 h 1 v -1 h 1 v -1 h 1 v -1 h 1 v -1 h 1 v -1 h 1 v -1 h 1 v -1 h 1 v -1 h 1 v -1 h 1 v -2 h 1 v -1 h 1 v -1 h 1 v -1 h 1 v -2 h 1 v -1 h 1 v -1 h 1 v -1 h 1 v -1 h 1 v -2 h 1 v -1 h 1 v -1 h 1 v -1 h 1 v -2 h 1 v -1 h 1 v -2 h 1 v -1 h 1 v -2 h 1 v -1 h 1 v -2 h 1 v -1 h 1 v -2 h 1 v -2 h 1 v -1 h 1 v -2 h 1 v -1 h 1 v -2 h 1 v -1 h 1 v -3 h 1 v -2 h 1 v -2 h 1 v -2 h 1 v -2 h 1 v -2 h 1 v -2 h 1 v -2 h 1 v -2 h 1 v -2 h 1 v -2 h 1 v -3 h 1 v -2 h 1 v -3 h 1 v -3 h 1 v -3 h 1 v -3 h 1 v -3 h 1 v -2 h 1 v -3 h 1 v -5 h 1 v -4 h 1 v -5 h 1 v -4 h 1 v -5 h 1 v -5 h 1 v -9 h 1 v -8 h 1 v -50 h -1 v -13 h -1 v -8 h -1 v -7 h -1 v -7 h -1 v -5 h -1 v -5 h -1 v -5 h -1 v -5 h -1 v -4 h -1 v -4 h -1 v -4 h -1 v -3 h -1 v -4 h -1 v -3 h -1 v -3 h -1 v -3 h -1 v -3 h -1 v -4 h -1 v -3 h -1 v -2 h -1 v -3 h -1 v -2 h -1 v -3 h -1 v -3 h -1 v -2 h -1 v -3 h -1 v -2 h -1 v -2 h -1 v -2 h -1 v -3 h -1 v -2 h -1 v -2 h -1 v -2 h -1 v -2 h -1 v -2 h -1 v -2 h -1 v -2 h -1 v -2 h -1 v -2 h -1 v -2 h -1 v -2 h -1 v -1 h -1 v -2 h -1 v -2 h -1 v -2 h -1 v -1 h -1 v -2 h -1 v -2 h -1 v -1 h -1 v -2 h -1 v -1 h -1 v -2 h -1 v -2 h -1 v -1 h -1 v -2 h -1 v -1 h -1 v -2 h -1 v -1 h -1 v -1 h -1 v -2 h -1 v -1 h -1 v -2 h -1 v -1 h -1 v -1 h -1 v -1 h -1 v -2 h -1 v -1 h -1 v -1 h -1 v -1 h -1 V 90 H 793 v 2 h 2 v 1 h 1 v 1 h 2 v 1 h 1 v 1 h 1 v 1 h 2 v 1 h 1 v 1 h 2 v 1 h 1 v 1 h 1 v 1 h 1 v 1 h 2 v 1 h 1 v 1 h 1 v 1 h 1 v 1 h 1 v 1 h 1 v 1 h 2 v 1 h 1 v 1 h 1 v 1 h 1 v 1 h 1 v 1 h 1 v 1 h 1 v 1 h 1 v 1 h 1 v 1 h 1 v 1 h 1 v 1 h 1 v 1 h 1 v 1 h 1 v 1 h 1 v 1 h 1 v 1 h 1 v 1 h 1 v 1 h 1 v 1 h 1 v 1 h 1 v 1 h 1 v 1 h 1 v 1 h 1 v 2 h 1 v 1 h 1 v 1 h 1 v 1 h 1 v 1 h 1 v 2 h 1 v 1 h 1 v 1 h 1 v 1 h 1 v 1 h 1 v 2 h 1 v 1 h 1 v 1 h 1 v 2 h 1 v 1 h 1 v 2 h 1 v 1 h 1 v 1 h 1 v 2 h 1 v 1 h 1 v 1 h 1 v 2 h 1 v 2 h 1 v 1 h 1 v 2 h 1 v 1 h 1 v 2 h 1 v 2 h 1 v 1 h 1 v 2 h 1 v 1 h 1 v 2 h 1 v 2 h 1 v 2 h 1 v 2 h 1 v 2 h 1 v 2 h 1 v 2 h 1 v 2 h 1 v 1 h 1 v 2 h 1 v 3 h 1 v 2 h 1 v 2 h 1 v 3 h 1 v 2 h 1 v 2 h 1 v 3 h 1 v 2 h 1 v 3 h 1 v 3 h 1 v 3 h 1 v 3 h 1 v 3 h 1 v 3 h 1 v 3 h 1 v 3 h 1 v 4 h 1 v 5 h 1 v 4 h 1 v 4 h 1 v 4 h 1 v 6 h 1 v 7 h 1 v 7 h 1 v 7 h 1 v 12 h 1 v 44 h -1 v 12 h -1 v 9 h -1 v 7 h -1 v 6 h -1 v 6 h -1 v 4 h -1 v 5 h -1 v 4 h -1 v 5 h -1 v 3 h -1 v 3 h -1 v 3 h -1 v 4 h -1 v 3 h -1 v 3 h -1 v 2 h -1 v 3 h -1 v 2 h -1 v 3 h -1 v 2 h -1 v 3 h -1 v 2 h -1 v 2 h -1 v 2 h -1 v 2 h -1 v 2 h -1 v 2 h -1 v 2 h -1 v 2 h -1 v 2 h -1 v 2 h -1 v 1 h -1 v 2 h -1 v 2 h -1 v 1 h -1 v 2 h -1 v 2 h -1 v 1 h -1 v 1 h -1 v 2 h -1 v 1 h -1 v 2 h -1 v 1 h -1 v 2 h -1 v 1 h -1 v 1 h -1 v 2 h -1 v 1 h -1 v 1 h -1 v 1 h -1 v 1 h -1 v 2 h -1 v 1 h -1 v 1 h -1 v 1 h -1 v 1 h -1 v 1 h -1 v 1 h -1 v 1 h -1 v 2 h -1 v 1 h -1 v 1 h -1 v 1 h -1 v 1 h -1 v 1 h -1 v 1 h -1 v 1 h -2 v 1 h -1 v 1 h -1 v 1 h -1 v 1 h -1 v 1 h -1 v 1 h -1 v 1 h -1 v 1 h -2 v 1 h -1 v 1 h -1 v 1 h -1 v 1 h -2 v 1 h -1 v 1 h -1 v 1 h -1 v 1 h -2 v 1 h -1 v 1 h -2 v 1 h -1 v 1 h -2 v 1 h -1 v 1 h -1 v 1 h -2 v 1 h -2 v 1 h -1 v 1 h -2 v 1 h -1 v 1 h -2 v 1 h -2 v 1 h -2 v 1 h -1 v 1 h -2 v 1 h -2 v 1 h -2 v 1 h -2 v 1 h -2 v 1 h -2 v 1 h -2 v 1 h -2 v 1 h -2 v 1 h -3 v 1 h -2 v 1 h -3 v 1 h -2 v 1 h -2 v 1 h -3 v 1 h -3 v 1 h -3 v 1 h -2 v 1 h -3 v 1 h -4 v 1 h -3 v 1 h -3 v 1 h -4 v 1 h -4 v 1 h -4 v 1 h -4 v 1 h -4 v 1 h -5 v 1 h -6 v 1 h -6 v 1 h -7 v 1 h -9 v 1 h -12 v 1 h -14 v -1 h -5 v -1 h -4 v -1 h -4 v -1 h -3 v -1 h -3 v -1 h -3 v -1 h -2 v -1 h -3 v -1 h -2 v -1 h -3 v -1 h -2 v -1 h -2 v -1 h -2 v -1 h -3 v -1 h -2 v -1 h -1 v -1 h -2 v -1 h -2 v -1 h -2 v -1 h -2 v -1 h -2 v -1 h -1 v -1 h -2 v -1 h -1 v -1 h -2 v -1 h -2 v -1 h -1 v -1 h -2 v -1 h -1 v -1 h -1 v -1 h -2 v -1 h -1 v -1 h -2 v -1 h -1 v -1 h -1 v -1 h -1 v -1 h -1 v -1 h -2 v -1 h -1 v -1 h -1 v -1 h -1 v -1 h -1 v -1 h -1 v -1 h -1 v -1 h -1 v -1 h -1 v -1 h -1 v -1 h -1 v -1 h -1 v -1 h -1 v -1 h -1 v -1 h -1 v -1 h -1 v -2 h -1 v -1 h -1 v -1 h -1 v -1 h -1 v -1 h -1 v -2 h -1 v -1 h -1 v -2 h -1 v -2 h -1 v -1 h -1 v -2 h -1 v -1 h -1 v -2 h -1 v -2 h -1 v -2 h -1 v -2 h -1 v -2 h -1 v -3 h -1 v -3 h -1 v -3 h -1 v -3 h -1 v -3 h -1 v -5 h -1 v -6 h -1 v -18 h 1 v -7 h 1 v -5 h 1 v -4 h 1 v -3 h 1 v -4 h 1 v -3 h 1 v -2 h 1 v -2 h 1 v -3 h 1 v -2 h 1 v -2 h 1 v -2 h 1 v -2 h 1 v -2 h 1 v -2 h 1 v -1 h 1 v -2 h 1 v -2 h 1 v -1 h 1 v -2 h 1 v -1 h 1 v -2 h 1 v -1 h 1 v -2 h 1 v -1 h 1 v -2 h 1 v -1 h 1 v -1 h 1 v -2 h 1 v -1 h 1 v -1 h 1 v -1 h 1 v -2 h 1 v -1 h 1 v -1 h 1 v -1 h 1 v -1 h 1 v -1 h 1 v -2 h 1 v -1 h 1 v -1 h 1 v -1 h 1 v -1 h 1 v -1 h 1 v -1 h 1 v -1 h 1 v -1 h 1 v -1 h 1 v -1 h 1 v -1 h 1 v -1 h 1 v -1 h 1 v -1 h 1 v -1 h 1 v -1 h 1 v -1 h 1 v -1 h 1 v -1 h 1 v -1 h 1 v -1 h 1 v -1 h 1 v -1 h 2 v -1 h 1 v -1 h 1 v -1 h 1 v -1 h 1 v -1 h 1 v -1 h 2 v -1 h 1 v -1 h 1 v -1 h 1 v -1 h 1 v -1 h 2 v -1 h 89 v -2 h 1 v -1 h 1 v -2 h 1 v -2 h 1 v -2 h 1 v -2 h 1 v -2 h 1 v -2 h 1 v -2 h 1 v -2 h 1 v -3 h 1 v -2 h 1 v -2 h 1 v -2 h 1 v -3 h 1 v -2 h 1 v -3 h 1 v -3 h 1 v -3 h 1 v -2 h 1 v -3 h 1 v -3 h 1 v -3 h 1 v -4 h 1 v -4 h 1 v -5 h 1 v -4 h 1 v -4 h 1 v -9 h 1 v -10 h 1 v -16 h -1 v -13 h -1 v -6 h -1 v -7 h -1 v -3 h -1 v -4 h -1 v -3 h -1 v -4 h -1 v -3 h -1 v -2 h -1 v -3 h -1 v -2 h -1 v -3 h -1 v -2 h -1 v -3 h -1 v -1 h -1 v -2 h -1 v -2 h -1 v -2 h -1 v -2 h -1 v -2 h -1 v -2 h -1 v -1 h -1 v -2 h -1 v -1 h -1 v -2 h -1 v -1 h -1 v -2 h -1 v -1 h -1 v -2 h -1 v -1 h -1 v -1 h -1 v -1 h -1 v -2 h -1 v -1 h -1 v -1 h -1 v -2 h -1 v -1 h -1 v -1 h -1 v -1 h -1 v -1 h -1 v -1 h -1 v -1 h -1 v -1 h -1 v -1 h -1 v -1 h -1 v -1 h -1 v -1 h 1 v 1 h 1 v 1 h 1 v 1 h 2 v 1 h 1 v 1 h 1 v 1 h 1 v 1 h 1 v 1 h 1 v 1 h 2 v 1 h 1 v 1 h 1 v 1 h 1 v 1 h 1 v 1 h 1 v 1 h 1 v 1 h 1 v 1 h 1 v 1 h 1 v 1 h 1 v 1 h 1 v 1 h 1 v 1 h 1 v 1 h 1 v 2 h 1 v 1 h 1 v 1 h 1 v 2 h 1 v 1 h 1 v 1 h 1 v 2 h 1 v 1 h 1 v 1 h 1 v 2 h 1 v 1 h 1 v 1 h 1 v 2 h 1 v 2 h 1 v 1 h 1 v 2 h 1 v 2 h 1 v 2 h 1 v 2 h 1 v 2 h 1 v 1 h 1 v 2 h 1 v 2 h 1 v 3 h 1 v 3 h 1 v 2 h 1 v 3 h 1 v 3 h 1 v 2 h 1 v 4 h 1 v 4 h 1 v 5 h 1 v 4 h 1 v 5 h 1 v 9 h 1 v 15 h 1 v 11 h -1 v 14 h -1 v 7 h -1 v 7 h -1 v 5 h -1 v 5 h -1 v 5 h -1 v 4 h -1 v 3 h -1 v 4 h -1 v 3 h -1 v 3 h -1 v 4 h -1 v 2 h -1 v 3 h -1 v 3 h -1 v 2 h -1 v 3 h -1 v 2 h -1 v 1 h 67 v -2 h 1 v -34 h -1 v -12 h -1 v -12 h -1 v -7 h -1 v -6 h -1 v -5 h -1 v -6 h -1 v -5 h -1 v -4 h -1 v -3 h -1 v -4 h -1 v -3 h -1 v -4 h -1 v -3 h -1 v -3 h -1 v -3 h -1 v -3 h -1 v -2 h -1 v -3 h -1 v -2 h -1 v -2 h -1 v -3 h -1 v -2 h -1 v -3 h -1 v -2 h -1 v -2 h -1 v -2 h -1 v -2 h -1 v -1 h -1 v -2 h -1 v -2 h -1 v -2 h -1 v -2 h -1 v -1 h -1 v -2 h -1 v -2 h -1 v -2 h -1 v -1 h -1 v -2 h -1 v -1 h -1 v -1 h -1 v -2 h -1 v -1 h -1 v -1 h -1 v -2 h -1 v -1 h -1 v -2 h -1 v -1 h -1 v -1 h -1 v -2 h -1 v -1 h -1 v -1 h -1 v -1 h -1 v -2 h -1 v -1 h -1 v -1 h -1 v -1 h -1 v -1 h -1 v -1 h -1 v -1 h -1 v -1 h -1 v -1 h -1 v -1 h -1 v -1 h -1 v -1 h -1 v -2 h -1 v -1 h -1 v -1 h -2 v -1 h -1 v -1 h -1 v -1 h -1 v -1 h -1 v -1 h -1 v -1 h -2 v -1 h -1 v -1 h -1 v -1 h -1 v -1 h -1 v -1 h -1 v -1 h -1 v -1 h -2 v -1 h -1 v -1 h -1 v -1 h -2 v -1 h -1 v -1 h -2 v -1 h -1 v -1 h -2 v -1 h -1 v -1 h -2 v -1 h -1 v -1 h -2 v -1 h -1 v -1 h -1 v -1 h -2 v -1 h -2 v -1 h -2 v -1 h -2 v -1 h -2 v -1 h -1 v -1 h -2 v -1 h -2 v -1 h -2 v -1 h -2 v -1 h -2 v -1 h -2 v -1 h -2 v -1 h -3 v -1 h -2 v -1 h -2 v -1 h -3 v -1 h -2 v -1 h -3 v -1 h -2 v -1 h -3 v -1 h -3 v -1 h -4 v -1 h -3 v -1 h -3 v -1 h -3 v -1 h -4 v -1 h -4 v -1 h -5 v -1 h -5 v -1 h -5 v -1 h -5 v -1 h -8 v -1 h -8 v -1 h -11 v -1 z m -43,16 h 1 v 1 h -1 z m -4,1 h 2 v 1 h -2 z m -3,1 h 2 v 1 h -2 z m -4,1 h 2 v 1 h -2 z m -3,1 h 2 v 1 h -2 z m 272,475 h 2 v 1 h -2 z"
               style="fill:url(#linearGradient294);fill-opacity:1;fill-rule:nonzero;stroke:none"
               id="path296" /></g></g></g><g
        id="g298"><g
           id="g300"
           clip-path="url(#clipPath304)"><g
             id="g306"
             clip-path="url(#clipPath310)"><path
               d="m 165,399 v 19 h 1 v 14 h 1 v 8 h 1 v 8 h 1 v 6 h 1 v 6 h 1 v 5 h 1 v 5 h 1 v 4 h 1 v 4 h 1 v 4 h 1 v 4 h 1 v 4 h 1 v 3 h 1 v 3 h 1 v 4 h 1 v 3 h 1 v 2 h 1 v 3 h 1 v 3 h 1 v 3 h 1 v 3 h 1 v 2 h 1 v 3 h 1 v 2 h 1 v 2 h 1 v 3 h 1 v 2 h 1 v 2 h 1 v 3 h 1 v 2 h 1 v 2 h 1 v 2 h 1 v 2 h 1 v 2 h 1 v 2 h 1 v 1 h 1 v 2 h 1 v 2 h 1 v 1 h 109 v -2 h -1 v -1 h -1 v -2 h -1 v -1 h -1 v -2 h -1 v -1 h -1 v -2 h -1 v -1 h -1 v -2 h -1 v -1 h -1 v -2 h -1 v -1 h -1 v -2 h -1 v -1 h -1 v -2 h -1 v -2 h -1 v -1 h -1 v -2 h -1 v -2 h -1 v -2 h -1 v -2 h -1 v -1 h -1 v -2 h -1 v -2 h -1 v -2 h -1 v -2 h -1 v -2 h -1 v -2 h -1 v -2 h -1 v -2 h -1 v -2 h -1 v -3 h -1 v -2 h -1 v -2 h -1 v -2 h -1 v -3 h -1 v -2 h -1 v -3 h -1 v -2 h -1 v -3 h -1 v -2 h -1 v -3 h -1 v -3 h -1 v -2 h -1 v -3 h -1 v -3 h -1 v -3 h -1 v -4 h -1 v -3 h -1 v -3 h -1 v -4 h -1 v -4 h -1 v -3 h -1 v -4 h -1 v -5 h -1 v -4 h -1 v -5 h -1 v -5 h -1 v -6 h -1 v -5 h -1 v -6 z m 108,0 v 3 h 1 v 6 h 1 v 5 h 1 v 5 h 1 v 5 h 1 v 4 h 1 v 4 h 1 v 4 h 1 v 4 h 1 v 3 h 1 v 4 h 1 v 3 h 1 v 3 h 1 v 3 h 1 v 3 h 1 v 3 h 1 v 3 h 1 v 3 h 1 v 2 h 1 v 3 h 1 v 2 h 1 v 3 h 1 v 2 h 1 v 3 h 1 v 2 h 1 v 2 h 1 v 3 h 1 v 2 h 1 v 2 h 1 v 2 h 1 v 2 h 1 v 2 h 1 v 2 h 1 v 2 h 1 v 2 h 1 v 2 h 1 v 2 h 1 v 2 h 1 v 2 h 1 v 1 h 1 v 2 h 1 v 2 h 1 v 2 h 1 v 1 h 1 v 2 h 1 v 2 h 1 v 1 h 1 v 2 h 1 v 1 h 1 v 2 h 1 v 2 h 1 v 1 h 1 v 1 h 1 v 2 h 1 v 1 h 1 v 2 h 1 v 1 h 1 v 2 h 1 v 1 h 1 v 1 h 1 v 2 h 1 v 1 h 1 v 1 h 1 v 1 h 1 v 2 h 1 v 1 h 1 v 1 h 125 v -2 h -2 v -1 h -1 v -1 h -2 v -1 h -1 v -1 h -2 v -1 h -1 v -1 h -1 v -1 h -2 v -1 h -1 v -1 h -1 v -1 h -1 v -1 h -2 v -1 h -1 v -1 h -1 v -1 h -1 v -1 h -2 v -1 h -1 v -1 h -1 v -1 h -1 v -1 h -1 v -1 h -1 v -1 h -1 v -1 h -1 v -1 h -1 v -1 h -2 v -1 h -1 v -1 h -1 v -1 h -1 v -1 h -1 v -1 h -1 v -1 h -1 v -1 h -1 v -1 h -1 v -1 h -1 v -1 h -1 v -1 h -1 v -2 h -1 v -1 h -1 v -1 h -1 v -1 h -1 v -1 h -1 v -1 h -1 v -1 h -1 v -1 h -1 v -2 h -1 v -1 h -1 v -1 h -1 v -1 h -1 v -1 h -1 v -2 h -1 v -1 h -1 v -1 h -1 v -1 h -1 v -2 h -1 v -1 h -1 v -1 h -1 v -2 h -1 v -1 h -1 v -2 h -1 v -1 h -1 v -1 h -1 v -2 h -1 v -1 h -1 v -2 h -1 v -1 h -1 v -2 h -1 v -2 h -1 v -1 h -1 v -2 h -1 v -1 h -1 v -2 h -1 v -2 h -1 v -1 h -1 v -2 h -1 v -2 h -1 v -2 h -1 v -2 h -1 v -2 h -1 v -2 h -1 v -1 h -1 v -2 h -1 v -3 h -1 v -2 h -1 v -2 h -1 v -2 h -1 v -2 h -1 v -3 h -1 v -2 h -1 v -2 h -1 v -3 h -1 v -3 h -1 v -2 h -1 v -3 h -1 v -3 h -1 v -3 h -1 v -3 h -1 v -3 h -1 v -3 h -1 v -4 h -1 v -4 h -1 v -1 z m 183,0 v 5 h 1 v 4 h 1 v 4 h 1 v 3 h 1 v 4 h 1 v 4 h 1 v 2 h 1 v 3 h 1 v 3 h 1 v 3 h 1 v 3 h 1 v 3 h 1 v 2 h 1 v 3 h 1 v 2 h 1 v 2 h 1 v 2 h 1 v 2 h 1 v 2 h 1 v 3 h 1 v 2 h 1 v 2 h 1 v 1 h 1 v 2 h 1 v 2 h 1 v 2 h 1 v 1 h 1 v 2 h 1 v 2 h 1 v 1 h 1 v 2 h 1 v 2 h 1 v 1 h 1 v 2 h 1 v 1 h 1 v 1 h 1 v 2 h 1 v 1 h 1 v 2 h 1 v 1 h 1 v 1 h 1 v 2 h 1 v 1 h 1 v 1 h 1 v 1 h 1 v 2 h 1 v 1 h 1 v 1 h 1 v 1 h 1 v 1 h 1 v 1 h 1 v 1 h 1 v 2 h 1 v 1 h 1 v 1 h 1 v 1 h 1 v 1 h 1 v 1 h 1 v 1 h 1 v 1 h 1 v 1 h 1 v 1 h 1 v 1 h 1 v 1 h 1 v 1 h 2 v 1 h 1 v 1 h 1 v 1 h 1 v 1 h 1 v 1 h 1 v 1 h 1 v 1 h 2 v 1 h 1 v 1 h 1 v 1 h 2 v 1 h 1 v 1 h 1 v 1 h 1 v 1 h 2 v 1 h 1 v 1 h 1 v 1 h 2 v 1 h 2 v 1 h 1 v 1 h 2 v 1 h 1 v 1 h 2 v 1 h 1 v 1 h 2 v 1 h 1 v 1 h 2 v 1 h 2 v 1 h 2 v 1 h 2 v 1 h 2 v 1 h 2 v 1 h 1 v 1 h 2 v 1 h 2 v 1 h 2 v 1 h 3 v 1 h 2 v 1 h 3 v 1 h 2 v 1 h 2 v 1 h 3 v 1 h 2 v 1 h 3 v 1 h 3 v 1 h 3 v 1 h 3 v 1 h 3 v 1 h 3 v 1 h 4 v 1 h 4 v 1 h 4 v 1 h 4 v 1 h 5 v 1 h 5 v 1 h 6 v 1 h 6 v 1 h 9 v 1 h 10 v 1 h 53 v -1 h 19 v -1 h 4 v -22 h -4 v 1 h -4 v 1 h -4 v 1 h -4 v 1 h -5 v 1 h -5 v 1 h -5 v 1 h -6 v 1 h -7 v 1 h -9 v 1 h -13 v 1 h -13 v -1 h -5 v -1 h -4 v -1 h -4 v -1 h -3 v -1 h -3 v -1 h -3 v -1 h -2 v -1 h -3 v -1 h -2 v -1 h -3 v -1 h -2 v -1 h -2 v -1 h -2 v -1 h -3 v -1 h -2 v -1 h -1 v -1 h -2 v -1 h -2 v -1 h -2 v -1 h -2 v -1 h -2 v -1 h -1 v -1 h -2 v -1 h -1 v -1 h -2 v -1 h -2 v -1 h -1 v -1 h -2 v -1 h -1 v -1 h -1 v -1 h -2 v -1 h -1 v -1 h -2 v -1 h -1 v -1 h -1 v -1 h -1 v -1 h -1 v -1 h -2 v -1 h -1 v -1 h -1 v -1 h -1 v -1 h -1 v -1 h -1 v -1 h -1 v -1 h -1 v -1 h -1 v -1 h -1 v -1 h -1 v -1 h -1 v -1 h -1 v -1 h -1 v -1 h -1 v -1 h -1 v -2 h -1 v -1 h -1 v -1 h -1 v -1 h -1 v -1 h -1 v -2 h -1 v -1 h -1 v -2 h -1 v -2 h -1 v -1 h -1 v -2 h -1 v -1 h -1 v -2 h -1 v -2 h -1 v -2 h -1 v -2 h -1 v -2 h -1 v -3 h -1 v -3 h -1 v -3 h -1 v -3 h -1 v -3 h -1 v -5 h -1 v -6 h -1 v -18 h 1 v -6 h 1 v -7 h 1 v -3 h 1 v -3 h 1 v -3 h 1 v -4 h 1 v -2 h 1 v -2 h 1 v -3 h 1 v -2 h 1 v -2 h 1 v -2 h 1 v -2 h -44 v 3 h -1 v 33 h 1 v 7 h 1 v 6 h 1 v 5 h 1 v 4 h 1 v 4 h 1 v 3 h 1 v 3 h 1 v 3 h 1 v 3 h 1 v 2 h 1 v 3 h 1 v 2 h 1 v 2 h 1 v 2 h 1 v 2 h 1 v 2 h 1 v 2 h 1 v 2 h 1 v 2 h 1 v 2 h 1 v 1 h 1 v 2 h 1 v 1 h 1 v 2 h 1 v 2 h 1 v 1 h 1 v 1 h 1 v 2 h 1 v 1 h 1 v 2 h 1 v 1 h 1 v 1 h 1 v 1 h 1 v 2 h 1 v 1 h 1 v 1 h 1 v 1 h 1 v 1 h 1 v 1 h 1 v 2 h 1 v 1 h 1 v 1 h 1 v 1 h 1 v 1 h -1 v -1 h -1 v -1 h -1 v -1 h -2 v -1 h -1 v -1 h -1 v -1 h -1 v -1 h -1 v -1 h -1 v -1 h -1 v -1 h -1 v -1 h -1 v -1 h -1 v -1 h -1 v -1 h -1 v -1 h -1 v -1 h -1 v -1 h -1 v -1 h -1 v -1 h -1 v -1 h -1 v -1 h -1 v -1 h -1 v -1 h -1 v -2 h -1 v -1 h -1 v -1 h -1 v -2 h -1 v -1 h -1 v -1 h -1 v -2 h -1 v -1 h -1 v -1 h -1 v -2 h -1 v -1 h -1 v -2 h -1 v -1 h -1 v -2 h -1 v -2 h -1 v -2 h -1 v -2 h -1 v -2 h -1 v -1 h -1 v -2 h -1 v -2 h -1 v -3 h -1 v -2 h -1 v -3 h -1 v -3 h -1 v -2 h -1 v -3 h -1 v -3 h -1 v -4 h -1 v -4 h -1 v -4 h -1 v -4 h -1 v -7 h -1 v -8 h -1 v -16 h -1 v -3 h 1 v -3"
               style="fill:url(#linearGradient318);fill-opacity:1;fill-rule:nonzero;stroke:none"
               id="path320" /></g></g></g><g
        id="g322"><g
           id="g324"
           clip-path="url(#clipPath328)"><g
             id="g330"
             clip-path="url(#clipPath334)"><path
               d="m 537,67 v 1 h -18 v 1 h -11 v 1 h -11 v 1 h -8 v 1 h -8 v 1 h -7 v 1 h -6 v 1 h -6 v 1 h -5 v 1 h -6 v 1 h -5 v 1 h -4 v 1 h -4 v 1 h -5 v 1 h -4 v 1 h -4 v 1 h -4 v 1 h -3 v 1 h -4 v 1 h -3 v 1 h -3 v 1 h -4 v 1 h -3 v 1 h -3 v 1 h -3 v 1 h -3 v 1 h -2 v 1 h -3 v 1 h -3 v 1 h -3 v 1 h -3 v 1 h -2 v 1 h -3 v 1 h -2 v 1 h -2 v 1 h -2 v 1 h -3 v 1 h -2 v 1 h -2 v 1 h -3 v 1 h -2 v 1 h -2 v 1 h -2 v 1 h -2 v 1 h -2 v 1 h -2 v 1 h -2 v 1 h -2 v 1 h -1 v 1 h -2 v 1 h -2 v 1 h -2 v 1 h -2 v 1 h -2 v 1 h -1 v 1 h -2 v 1 h -2 v 1 h -1 v 1 h -2 v 1 h -1 v 1 h -2 v 1 h -2 v 1 h -1 v 1 h -2 v 1 h -1 v 1 h -2 v 1 h -2 v 1 h -1 v 1 h -1 v 1 h -2 v 1 h -1 v 1 h -2 v 1 h -1 v 1 h -1 v 1 h -2 v 1 h -1 v 1 h -1 v 1 h -2 v 1 h -1 v 1 h -1 v 1 h -2 v 1 h -1 v 1 h -1 v 1 h -2 v 1 h -1 v 1 h -1 v 1 h -1 v 1 h -1 v 1 h -1 v 1 h -1 v 1 h -1 v 1 h -2 v 1 h -1 v 1 h -1 v 1 h -1 v 1 h -1 v 1 h -1 v 1 h -1 v 1 h -2 v 1 h -1 v 1 h -1 v 1 h -1 v 1 h -1 v 1 h -1 v 1 h -1 v 1 h -1 v 1 h -1 v 1 h -1 v 1 h -1 v 2 h -1 v 1 h -1 v 1 h -1 v 1 h -1 v 1 h -1 v 1 h -1 v 1 h -1 v 1 h -1 v 1 h -1 v 1 h -1 v 1 h -1 v 1 h -1 v 1 h -1 v 2 h -1 v 1 h -1 v 1 h -1 v 1 h -1 v 2 h -1 v 1 h -1 v 1 h -1 v 1 h -1 v 2 h -1 v 1 h -1 v 1 h -1 v 1 h -1 v 1 h -1 v 2 h -1 v 1 h -1 v 1 h -1 v 2 h -1 v 1 h -1 v 2 h -1 v 1 h -1 v 1 h -1 v 2 h -1 v 1 h -1 v 2 h -1 v 1 h -1 v 2 h -1 v 1 h -1 v 1 h -1 v 2 h -1 v 2 h -1 v 1 h -1 v 2 h -1 v 2 h 62 v -1 h 1 v -2 h 1 v -2 h 1 v -2 h 1 v -1 h 1 v -2 h 1 v -1 h 1 v -2 h 1 v -2 h 1 v -1 h 1 v -2 h 1 v -1 h 1 v -2 h 1 v -2 h 1 v -1 h 1 v -1 h 1 v -2 h 1 v -1 h 1 v -1 h 1 v -2 h 1 v -1 h 1 v -1 h 1 v -1 h 1 v -2 h 1 v -1 h 1 v -1 h 1 v -2 h 1 v -1 h 1 v -1 h 1 v -2 h 1 v -1 h 1 v -1 h 1 v -1 h 1 v -1 h 1 v -1 h 1 v -1 h 1 v -1 h 1 v -1 h 1 v -1 h 1 v -1 h 1 v -1 h 1 v -1 h 1 v -1 h 1 v -1 h 1 v -2 h 1 v -1 h 1 v -1 h 1 v -1 h 1 v -1 h 1 v -1 h 2 v -1 h 1 v -1 h 1 v -1 h 1 v -1 h 1 v -1 h 1 v -1 h 1 v -1 h 2 v -1 h 1 v -1 h 1 v -1 h 1 v -1 h 1 v -1 h 1 v -1 h 1 v -1 h 2 v -1 h 1 v -1 h 1 v -1 h 2 v -1 h 1 v -1 h 1 v -1 h 2 v -1 h 1 v -1 h 1 v -1 h 2 v -1 h 1 v -1 h 1 v -1 h 2 v -1 h 1 v -1 h 1 v -1 h 2 v -1 h 1 v -1 h 2 v -1 h 2 v -1 h 1 v -1 h 2 v -1 h 1 v -1 h 2 v -1 h 1 v -1 h 2 v -1 h 2 v -1 h 1 v -1 h 2 v -1 h 1 v -1 h 2 v -1 h 2 v -1 h 2 v -1 h 2 v -1 h 2 v -1 h 1 v -1 h 2 v -1 h 2 v -1 h 2 v -1 h 2 v -1 h 2 v -1 h 2 v -1 h 2 v -1 h 2 v -1 h 2 v -1 h 2 v -1 h 2 v -1 h 2 v -1 h 2 v -1 h 3 v -1 h 2 v -1 h 2 v -1 h 3 v -1 h 2 v -1 h 2 v -1 h 3 v -1 h 2 v -1 h 3 v -1 h 2 v -1 h 3 v -1 h 3 v -1 h 3 v -1 h 2 v -1 h 3 v -1 h 3 v -1 h 3 v -1 h 3 v -1 h 3 v -1 h 3 v -1 h 3 v -1 h 3 v 1 h -3 v 1 h -2 v 1 h -3 v 1 h -3 v 1 h -2 v 1 h -3 v 1 h -3 v 1 h -2 v 1 h -3 v 1 h -2 v 1 h -3 v 1 h -2 v 1 h -2 v 1 h -3 v 1 h -2 v 1 h -2 v 1 h -2 v 1 h -2 v 1 h -2 v 1 h -3 v 1 h -2 v 1 h -2 v 1 h -2 v 1 h -2 v 1 h -2 v 1 h -2 v 1 h -1 v 1 h -2 v 1 h -2 v 1 h -2 v 1 h -2 v 1 h -2 v 1 h -1 v 1 h -2 v 1 h -2 v 1 h -2 v 1 h -1 v 1 h -2 v 1 h -2 v 1 h -1 v 1 h -2 v 1 h -1 v 1 h -2 v 1 h -1 v 1 h -2 v 1 h -1 v 1 h -2 v 1 h -2 v 1 h -1 v 1 h -1 v 1 h -2 v 1 h -1 v 1 h -1 v 1 h -2 v 1 h -1 v 1 h -2 v 1 h -1 v 1 h -1 v 1 h -2 v 1 h -1 v 1 h -1 v 1 h -1 v 1 h -2 v 1 h -1 v 1 h -1 v 1 h -1 v 1 h -1 v 1 h -2 v 1 h -1 v 1 h -1 v 1 h -1 v 1 h -1 v 1 h -1 v 1 h -2 v 1 h -1 v 1 h -1 v 1 h -1 v 1 h -1 v 1 h -1 v 1 h -1 v 1 h -1 v 1 h -1 v 1 h -1 v 1 h -1 v 1 h -1 v 1 h -1 v 1 h -1 v 1 h -1 v 1 h -1 v 1 h -1 v 1 h -1 v 1 h -1 v 2 h -1 v 1 h -1 v 1 h -1 v 1 h -1 v 1 h -1 v 1 h -1 v 1 h -1 v 2 h -1 v 1 h -1 v 1 h -1 v 1 h -1 v 2 h -1 v 1 h -1 v 1 h -1 v 1 h -1 v 2 h -1 v 1 h -1 v 1 h -1 v 2 h -1 v 1 h -1 v 2 h -1 v 1 h -1 v 2 h -1 v 1 h -1 v 2 h -1 v 1 h -1 v 2 h -1 v 1 h -1 v 2 h -1 v 2 h -1 v 1 h -1 v 2 h -1 v 2 h -1 v 2 h -1 v 1 h -1 v 2 h -1 v 2 h -1 v 3 h 68 v -2 h 1 v -3 h 1 v -3 h 1 v -3 h 1 v -2 h 1 v -3 h 1 v -2 h 1 v -3 h 1 v -2 h 1 v -3 h 1 v -2 h 1 v -2 h 1 v -2 h 1 v -2 h 1 v -2 h 1 v -2 h 1 v -2 h 1 v -2 h 1 v -1 h 1 v -2 h 1 v -2 h 1 v -2 h 1 v -1 h 1 v -2 h 1 v -2 h 1 v -1 h 1 v -1 h 1 v -2 h 1 v -1 h 1 v -2 h 1 v -1 h 1 v -2 h 1 v -1 h 1 v -1 h 1 v -2 h 1 v -1 h 1 v -1 h 1 v -1 h 1 v -2 h 1 v -1 h 1 v -1 h 1 v -1 h 1 v -1 h 1 v -1 h 1 v -2 h 1 v -1 h 1 v -1 h 1 v -1 h 1 v -1 h 1 v -1 h 1 v -1 h 1 v -1 h 1 v -1 h 1 v -1 h 1 v -1 h 1 v -1 h 1 v -1 h 1 v -1 h 1 v -1 h 1 v -1 h 2 v -1 h 1 v -1 h 1 v -1 h 1 v -1 h 1 v -1 h 1 v -1 h 2 v -1 h 1 v -1 h 1 v -1 h 2 v -1 h 1 v -1 h 1 v -1 h 1 v -1 h 2 v -1 h 1 v -1 h 2 v -1 h 1 v -1 h 2 v -1 h 1 v -1 h 2 v -1 h 1 v -1 h 2 v -1 h 2 v -1 h 1 v -1 h 2 v -1 h 2 v -1 h 1 v -1 h 2 v -1 h 2 v -1 h 2 v -1 h 2 v -1 h 2 v -1 h 2 v -1 h 2 v -1 h 2 v -1 h 2 v -1 h 2 v -1 h 3 v -1 h 2 v -1 h 2 v -1 h 3 v -1 h 2 v -1 h 3 v -1 h 2 v -1 h 3 v -1 h 3 v -1 h 3 v -1 h 3 v -1 h 4 v -1 h 3 v -1 h 4 v -1 h 3 v -1 h 5 v -1 h 4 v -1 h 4 v -1 h 5 v -1 h 6 v -1 h 6 v -1 h 7 v -1 h 9 v -1 h 13 v -1 h 12 v 1 h 5 v 1 h 4 v 1 h 4 v 1 h 3 v 1 h 3 v 1 h 3 v 1 h 3 v 1 h 2 v 1 h 3 v 1 h 2 v 1 h 3 v 1 h 2 v 1 h 2 v 1 h 2 v 1 h 2 v 1 h 2 v 1 h 2 v 1 h 2 v 1 h 2 v 1 h 2 v 1 h 1 v 1 h 2 v 1 h 2 v 1 h 1 v 1 h 2 v 1 h 2 V 80 h -2 v -1 h -3 v -1 h -4 v -1 h -3 v -1 h -4 v -1 h -4 v -1 h -5 v -1 h -5 v -1 h -5 v -1 h -5 v -1 h -7 v -1 h -9 v -1 h -10 v -1 z m -43,16 h 1 v 1 h -1 z m -4,1 h 2 v 1 h -2 z m -3,1 h 1 v 1 h -1 z m -4,1 h 2 v 1 h -2 z m -3,1 h 2 v 1 h -2 z"
               style="fill:url(#linearGradient342);fill-opacity:1;fill-rule:nonzero;stroke:none"
               id="path344" /></g></g></g><g
        id="g346"><g
           id="g348"
           clip-path="url(#clipPath352)"><path
             d="m 1088.92,338.063 c 0,-87.262 -70.73,-158.043 -158.053,-158.043 -87.269,0 -157.992,70.781 -157.992,158.043 0,87.277 70.723,157.996 157.992,157.996 87.323,0 158.053,-70.719 158.053,-157.996"
             style="fill:#ffffff;fill-opacity:1;fill-rule:nonzero;stroke:none"
             id="path354" /><path
        d="m 962.539,241.98 c -51.457,0 -93.184,41.68 -93.184,93.122 0,51.457 41.727,93.125 93.184,93.125 25.633,0 48.831,-10.34 65.661,-27.118 -21.21,29.168 -55.544,48.211 -94.38,48.211 -64.414,0 -116.711,-52.304 -116.711,-116.718 0,-64.532 52.297,-116.774 116.711,-116.774 46.282,0 86.19,27.012 105.07,66.063 -16.83,-24.039 -44.745,-39.911 -76.351,-39.911"
        style="fill:#d61e25;fill-opacity:1;fill-rule:nonzero;stroke:none"
        id="path356" /><path
        d="m 951.105,397.242 29.508,-37.179 44.857,15.578 -26.154,-39.629 28.604,-37.801 -45.713,12.672 -27.176,-38.942 -2.051,47.481 -45.421,13.699 44.457,16.649 -0.911,47.472"
        style="fill:#d61e25;fill-opacity:1;fill-rule:nonzero;stroke:none"
        id="path358" /></g></g></g></g></svg>
