<?xml version="1.0" encoding="UTF-8"?>
<svg id="Calque_2" xmlns="http://www.w3.org/2000/svg" xmlns:xlink="http://www.w3.org/1999/xlink" viewBox="0 0 829.92 270">
  <defs>
    <style>
      .cls-1 {
        fill: #312783;
      }

      .cls-2 {
        fill: none;
      }

      .cls-3 {
        clip-path: url(#clippath);
      }
    </style>
    <clipPath id="clippath">
      <rect class="cls-2" x="15.04" y="21.11" width="799.84" height="239.66"/>
    </clipPath>
  </defs>
  <g id="Calque_1-2">
    <g class="cls-3">
      <g>
        <path class="cls-1" d="M725.87,214.19c0,9.42-7.64,17.06-17.06,17.06s-17.06-7.64-17.06-17.06,7.64-17.06,17.06-17.06,17.06,7.64,17.06,17.06"/>
        <path class="cls-1" d="M635.3,68.46c17.12-21.99,43.82-36.15,73.78-36.15,51.54,0,93.47,41.93,93.47,93.47s-41.93,93.45-93.47,93.45c-28.81,0-54.62-13.1-71.77-33.66h10.36c15.59,16.01,37.36,25.96,61.42,25.96,47.29,0,85.76-38.46,85.76-85.75s-38.47-85.76-85.76-85.76c-25.27,0-48.03,10.99-63.73,28.45h-10.06Z"/>
        <path class="cls-1" d="M692.31,37.53c0,9.07,7.36,16.42,16.42,16.42s16.42-7.35,16.42-16.42-7.35-16.42-16.42-16.42-16.42,7.35-16.42,16.42"/>
        <path class="cls-1" d="M95.08,150.1h-13.95v-31.3c0-13.12-5.06-14.81-9.46-14.81-4.62,0-9.93,1.69-9.93,14.81v31.3h-13.95v-31.3c0-13.04-4.72-14.81-9.34-14.81-4.91,0-9.46,1.81-9.46,14.81v31.3h-13.95v-33.4c0-15.78,8.62-25.6,22.49-25.6,7.1,0,12.93,2.64,17.34,7.87,4.73-5.23,10.69-7.87,17.72-7.87,10.26,0,22.49,4.97,22.49,28.75v30.25h0Z"/>
        <path class="cls-1" d="M203.6,151.61c-8.14,0-15.53-3.07-21.35-8.89-5.68-5.68-8.79-13.26-8.79-21.37s3.11-15.68,8.79-21.36c5.74-5.74,13.32-8.9,21.35-8.9s14.73,2.9,21.41,8.85l1.14,1.01-9.85,10-1.04-.97c-3.56-3.34-7.15-4.82-11.67-4.82-9.1,0-15.96,6.96-15.96,16.19,0,9.76,6.42,16.32,15.96,16.32,4.6,0,8.34-1.51,11.78-4.73l1.03-.97,9.76,9.77-1.16,1.03c-6.78,6.03-13.58,8.84-21.41,8.84"/>
        <path class="cls-1" d="M414.35,150.1h-13.95v-29.44c0-10.71-3.32-15.26-11.09-15.26-6.62,0-10.74,3.84-10.74,10.03v34.67h-13.95v-85.72h13.95v31.94c3.51-2.44,7.77-3.71,12.48-3.71,14.15,0,23.29,9.64,23.29,24.56v32.93h0Z"/>
        <path class="cls-1" d="M510.86,150.1h-13.95v-33.04c0-15.29,10.24-25.15,26.08-25.15h3.09v14.08h-2.86c-8.2,0-12.36,3.68-12.36,10.96v33.16h0Z"/>
        <path class="cls-1" d="M612.48,150.1h-13.95v-31.3c0-13.12-5.05-14.81-9.46-14.81s-9.93,1.69-9.93,14.81v31.3h-13.95v-31.3c0-13.04-4.72-14.81-9.34-14.81-4.92,0-9.46,1.81-9.46,14.81v31.3h-13.95v-33.4c0-15.78,8.61-25.6,22.48-25.6,7.1,0,12.93,2.64,17.34,7.87,4.74-5.23,10.69-7.87,17.73-7.87,10.25,0,22.47,4.97,22.47,28.75v30.25h.02Z"/>
        <path class="cls-1" d="M162.95,116.72c-1.97-6.02-4.02-12.26-9.08-17.32-5.64-5.51-12.75-8.31-21.11-8.31-17.79,0-31.2,13.01-31.2,30.25s12.73,30.26,30.27,30.26c10.31,0,18.54-4.2,24-12.19l3.63,10.81h14.69l-11.2-33.5h0ZM131.8,137.67c-9.4,0-15.96-6.42-15.96-15.63,0-9.98,6.96-17.24,16.54-17.24,9.03,0,15.84,7.18,15.84,16.67s-6.6,16.2-16.42,16.2"/>
        <path class="cls-1" d="M680.45,116.72c-1.97-6.02-4.02-12.26-9.08-17.32-5.63-5.51-12.75-8.31-21.11-8.31-17.78,0-31.19,13.01-31.19,30.25s12.73,30.26,30.27,30.26c10.3,0,18.54-4.2,24-12.19l3.63,10.81h14.69l-11.2-33.5h-.01ZM649.3,137.67c-9.4,0-15.97-6.42-15.97-15.63,0-9.98,6.96-17.24,16.54-17.24,9.02,0,15.84,7.18,15.84,16.67s-6.6,16.2-16.42,16.2"/>
        <path class="cls-1" d="M482.08,116.72c-1.98-6.02-4.02-12.26-9.08-17.32-5.64-5.51-12.75-8.31-21.11-8.31-17.79,0-31.2,13.01-31.2,30.25s12.74,30.26,30.26,30.26c10.3,0,18.54-4.2,24.01-12.19l3.63,10.81h14.69l-11.2-33.5h0ZM450.92,137.67c-9.4,0-15.96-6.42-15.96-15.63,0-9.98,6.96-17.24,16.54-17.24,9.02,0,15.84,7.18,15.84,16.67s-6.6,16.2-16.42,16.2"/>
        <path class="cls-1" d="M280.94,99.99c-5.74-5.74-13.37-8.9-21.47-8.9s-15.62,3.15-21.35,8.9c-5.67,5.67-8.79,13.25-8.79,21.36s3.12,15.69,8.79,21.37c5.82,5.82,13.21,8.9,21.35,8.9s15.73-3.17,21.47-8.9c5.67-5.67,8.79-13.26,8.79-21.37s-3.13-15.82-8.79-21.36M259.5,137.65c-9.4,0-15.96-6.42-15.96-15.63,0-9.78,6.71-16.89,15.96-16.89s16.08,6.82,16.08,16.2-6.46,16.31-16.08,16.31"/>
        <path class="cls-1" d="M347.95,99.99c-5.74-5.74-13.37-8.9-21.47-8.9-11.04,0-20.41,4.73-25.07,12.68-3.55,6.12-5.07,14.18-5.07,26.99v50.44h14.07v-35.64c5.08,3.75,10.75,5.59,17.24,5.59,7.88,0,14.7-2.83,20.31-8.43,5.67-5.67,8.79-13.26,8.79-21.36s-3.12-15.69-8.79-21.36M326.59,137.65c-9.25,0-15.96-7.16-15.96-17.02,0-9.12,6.56-15.5,15.96-15.5s15.96,6.51,15.96,16.2-6.72,16.32-15.96,16.32"/>
        <path class="cls-1" d="M782.04,126.53c0,9.07,7.36,16.42,16.42,16.42s16.42-7.35,16.42-16.42-7.35-16.42-16.42-16.42-16.42,7.35-16.42,16.42"/>
        <path class="cls-1" d="M610.8,205.17c.9,0,1.34.22,1.34,1.12,0,2.35-8.84,8.61-12.75,8.73,1.68-2.69,7.94-9.84,11.41-9.84M601.29,224.08c-2.68,0-3.36-2.24-3.36-3.36s.11-1.79,2.12-2.24c6.94-1.57,16.67-8.05,16.67-13.76,0-2.12-2.46-3.92-4.59-3.92-5.71,0-13.2,4.25-17.79,14.88-1.01.45-1.9,1.68-1.9,2.68,0,1.12.34,1.45.34,2.57,0,3.58,3.92,7.05,7.38,7.05,5.15,0,8.95-3.02,12.31-5.59,1.57-1.23,2.24-2.01,2.24-3.02,0-.9-.56-1.57-1.57-1.57-1.23,0-2.01,1.12-3.8,2.46-2.01,1.57-4.92,3.8-8.05,3.8M580.03,205.62c0,1.34.78,1.34,3.47,1.34-4.25,9.96-9.06,26.4-9.06,35.35,0,3.13,1.45,4.25,2.57,4.25s2.24-1.12,2.24-2.01c0-2.01-.45-2.01-.45-3.92,0-7.83,4.81-22.82,9.85-34.12,4.25-.33,9.73-.78,14.65-.78.78,0,1.57-.67,1.57-1.57s-.78-1.79-1.9-1.79h-12.42c4.36-9.4,6.38-13.31,9.73-18.91,5.37-8.95,10.51-12.53,12.98-12.53,1.23,0,1.46.56,1.46,1.57,0,.9.78,1.45,1.79,1.45,1.34,0,2.91-1.9,2.91-4.14,0-1.9-2.8-3.58-6.04-3.58-4.36,0-12.64,7.05-17.9,16.22-4.59,8.06-6.71,12.31-9.96,19.91h-2.8c-1.68,0-2.68,1.57-2.68,3.24M565.49,223.29c-1.46,0-2.01-1.23-2.01-2.24,0-2.46,3.36-10.29,5.82-14.54,1.01-1.68,2.13-2.8,2.13-4.03s-1.57-2.01-2.57-2.01c-1.45,0-2.46,1.79-3.69,3.92-.9,1.68-6.6,12.64-6.6,17.56,0,3.69,2.69,5.71,4.59,5.71,5.59,0,15.66-9.51,21.03-15.89,1.23-1.57,1.68-2.24,1.68-3.24,0-.89-.56-1.57-1.57-1.57-1.23,0-2.13,1.12-3.47,2.8-4.03,5.37-12.08,13.54-15.33,13.54M580.59,180.45c-2.24,0-3.8,1.9-3.8,3.47s.56,3.92,1.9,3.92,4.36-1.57,4.36-4.25c0-2.24-1.34-3.13-2.46-3.13M564.26,170.04c1.12,0,1.68.45,1.68,1.57,0,2.68-1.34,6.04-7.94,15.1-6.04,8.17-11.63,13.09-13.09,13.76.34-1.79,1.68-6.49,7.61-16.89,5.71-10.4,10.29-13.54,11.75-13.54M543.68,223.85c-2.46,0-3.69-2.01-3.69-5.26,0-2.46,1.57-8.73,3.58-11.97,4.92-3.92,10.18-7.61,17.45-16.78,8.06-10.29,9.85-17.12,9.85-20.36,0-2.24-2.24-4.59-4.36-4.59-6.27,0-11.3,5.71-18.01,17.23-6.38,10.96-13.65,28.19-13.65,37.7,0,5.15,4.36,8.17,8.05,8.17,6.38,0,16.11-9.84,21.37-16.22,1.34-1.57,1.79-2.24,1.79-3.24,0-.89-.56-1.57-1.57-1.57-1.23,0-2.12,1.12-3.47,2.8-4.03,5.37-12.53,14.1-17.34,14.1M513.7,193.42c2.91-5.59,5.37-10.07,7.27-11.63,2.13-1.68,2.35-2.57,2.35-3.92s-.89-2.01-2.35-2.01-2.68,1.12-4.59,3.8c-2.68,3.69-4.81,7.72-8.05,13.54-1.23.22-2.35.45-3.47.45-1.34,0-1.68-.78-3.36-.78-1.79,0-2.91,1.12-2.91,2.69,0,2.35,5.15,2.35,7.05,2.35-5.37,10.63-10.74,22.82-10.74,29.31,0,2.8,1.12,4.48,2.8,4.48,1.57,0,2.35-1.34,2.35-2.24,0-1.01-.67-1.57-.67-3.02,0-5.82,5.37-17.56,11.41-28.42,4.14,0,10.52,0,10.52-3.02,0-1.57-.45-2.35-2.24-2.35-1.68,0-3.24.78-5.37.78M479.92,200.36c-1.57,0-2.35,1.34-3.13,4.03-.56,2.24-2.24,6.49-4.03,10.74-1.68,4.14-3.47,8.95-3.47,10.18,0,1.12,1.45,2.57,2.57,2.57,1.01,0,3.02-6.49,5.59-10.51,3.58-5.59,10.96-12.75,12.53-12.75.67,0,1.01.34,1.01.78,0,.56-.78,1.9-.78,3.02,0,1.23,1.12,2.13,2.13,2.13,2.8,0,3.92-3.24,3.92-6.71,0-2.57-1.9-3.92-4.03-3.92-2.8,0-6.04,2.46-10.18,6.82-.56.56-.89.9-1.34.9-.22,0-.22-.11-.22-.34,0-1.01,1.57-3.92,1.57-5.26,0-.9-1.01-1.68-2.13-1.68M458.21,205.62c.22,0,.33.11.33.34,0,.45-.33,1.34-.33,2.46,0,1.45,1.68,2.01,1.68,2.35,0,3.36-5.71,13.42-10.07,13.42-1.45,0-2.8-1.23-2.8-3.25,0-7.27,6.38-15.33,11.19-15.33M458.89,200.58c-7.83,0-16.56,9.96-16.56,20.36,0,4.81,3.13,7.16,6.26,7.16,7.83,0,12.98-8.84,15.33-15.55.45,0,5.59,0,9.73-1.9,3.69-1.68,5.15-3.02,5.15-4.14s-.89-1.9-2.01-1.9-5.48,3.13-10.07,3.13c-1.79,0-1.79-2.57-1.79-3.47,0-1.68-1.9-3.69-6.04-3.69M416.04,221.73c2.01-5.48,13.42-15.89,17.45-15.89,1.12,0,1.68.78,1.68,1.57,0,2.91-6.38,16.11-15.66,16.11-2.35,0-3.47-1.79-3.47-1.79M421.97,200.58c-1.9,0-3.36,2.24-4.81,4.92-1.34,2.69-5.59,12.31-7.94,19.02-2.68,7.5-7.83,22.93-7.83,32.55,0,2.69,1.34,3.69,2.68,3.69,1.45,0,3.02-1.68,3.02-2.91,0-1.34-.56-2.13-.56-4.47,0-8.28,6.15-26.96,8.28-26.96.45,0,1.9,1.68,4.25,1.68,12.75,0,21.26-16,21.26-22.26,0-3.47-2.24-5.26-4.03-5.26-1.9,0-8.17,2.13-15.44,10.29-.22,0-.34-.22-.34-.45,0-.45.34-.9.78-1.68,1.45-2.46,3.69-4.92,3.69-6.38,0-1.34-1.9-1.79-3.02-1.79M392.32,223.74c-.78,0-1.23-.33-1.23-1.34,0-2.35,3.8-6.15,9.29-8.73-1.68,4.92-5.03,10.07-8.05,10.07M407.32,205.84c0-3.58-1.79-5.26-4.48-5.26-1.9,0-8.17,2.13-15.44,10.29-.22,0-.34-.22-.34-.45,0-.56.34-1.23.56-1.9,1.12-2.57,3.92-4.7,3.92-6.15,0-1.34-1.9-1.79-3.02-1.79-1.9,0-3.36,2.24-4.81,4.92-1.34,2.69-5.59,12.31-7.94,19.02-2.68,7.5-7.83,22.93-7.83,32.55,0,2.69,1.34,3.69,2.68,3.69,1.45,0,3.02-1.68,3.02-2.91,0-1.34-.56-2.13-.56-4.47,0-8.28,8.61-29.53,9.51-31.66,2.13-5.48,13.42-15.89,17.45-15.89,1.34,0,2.01.78,2.01,1.57,0,.67,0,1.45-.22,2.24-8.17,3.36-14.99,9.51-14.99,13.54,0,2.57,2.13,4.36,4.36,4.36,6.38,0,13.09-7.94,15.21-16,2.35-.56,4.59-1.01,7.16-1.01,2.35,0,3.8-.22,3.8-1.79,0-1.46-1.57-1.79-3.69-1.79-2.24,0-4.25.33-6.6.9.11-.67.22-1.34.22-2.01M366.59,222.62c-.89,0-1.45-.89-1.45-2.57s.56-4.14,1.45-6.93c.78-2.69,2.46-5.37,3.58-6.94.78-1.01,1.34-2.24,1.34-2.57,0-1.01-.45-2.13-2.35-2.13-.67,0-1.79.89-2.8,2.24-1.57,2.01-3.69,6.26-5.37,9.06-3.36,5.15-10.74,10.63-12.75,10.63-1.12,0-1.34-.67-1.34-1.57,0-3.24,6.94-11.19,6.94-17.79,0-1.9-.22-3.47-2.35-3.47s-2.8,1.9-2.8,4.47c0,6.38-6.82,12.42-6.82,18.01,0,1.79,1.01,4.59,4.7,4.59,4.7,0,10.74-5.59,14.77-9.62,0,.78-.22,1.79-.22,3.02,0,2.69.78,5.82,4.7,5.82,4.92,0,12.53-8.73,17.9-15.1,1.23-1.57,1.68-2.24,1.68-3.24,0-.89-.45-1.57-1.57-1.57s-2.12,1.12-3.36,2.8c-4.14,5.37-11.19,12.86-13.87,12.86M332.03,220.38c0,2.24-1.57,4.14-3.92,4.14-2.12,0-3.13-1.12-3.13-3.02,0-1.12-1.01-1.68-2.01-1.68-1.34,0-2.46,1.23-2.46,2.8,0,2.69,3.02,5.48,6.94,5.48,6.49,0,9.73-4.03,9.73-7.72,0-7.16-8.06-6.71-8.06-9.84s5.26-6.26,6.82-6.26c.9,0,1.68.78,1.68,1.45,0,.45-1.68.78-1.68,2.68,0,1.23,1.12,1.9,2.35,1.9,2.24,0,3.69-3.92,3.69-6.26s-2.57-4.03-4.48-4.03c-4.92,0-13.42,5.37-13.42,11.19,0,5.03,7.94,4.81,7.94,9.17M292.2,205.17c.89,0,1.34.22,1.34,1.12,0,2.35-8.84,8.61-12.75,8.73,1.68-2.69,7.94-9.84,11.41-9.84M282.69,224.08c-2.68,0-3.36-2.24-3.36-3.36s.11-1.79,2.13-2.24c6.94-1.57,16.67-8.05,16.67-13.76,0-2.12-2.46-3.92-4.59-3.92-5.71,0-13.2,4.25-17.79,14.88-1.01.45-1.9,1.68-1.9,2.68,0,1.12.34,1.45.34,2.57,0,3.58,3.92,7.05,7.38,7.05,5.15,0,8.95-3.02,12.31-5.59,1.57-1.23,2.24-2.01,2.24-3.02,0-.9-.56-1.57-1.57-1.57-1.23,0-2.01,1.12-3.8,2.46-2.01,1.57-4.92,3.8-8.05,3.8M189.17,202.37c0,2.57,1.57,3.58,2.91,3.58,1.68,0,2.46-1.79,2.46-4.25,0-11.19,22.71-26.74,33.9-26.74,2.8,0,4.14,1.68,4.14,4.81,0,3.92-8.28,21.81-14.32,33.11-3.69,7.16-7.72,14.21-7.72,16.56s1.12,4.03,2.68,4.03,4.7-3.8,7.27-6.38c10.07-10.07,21.59-21.37,26.62-26.62-2.68,7.16-3.58,16.56-3.58,20.02,0,4.92,2.12,9.84,6.38,9.84,11.3,0,29.31-23.72,29.31-52.91,0-7.05-3.69-11.3-6.6-11.3-1.79,0-3.13,1.12-3.13,3.24,0,3.13,4.92,2.35,4.92,9.73,0,23.38-15.55,46.31-22.15,46.31-2.24,0-3.25-1.9-3.25-6.38,0-11.75,7.5-26.51,7.5-28.42s-1.01-2.68-2.46-2.68-2.46,1.45-4.92,4.36c-9.17,10.74-19.46,18.57-28.97,28.41,8.28-14.54,17.9-35.8,17.9-42.06,0-4.14-3.24-8.06-8.17-8.06-14.1,0-40.72,17.56-40.72,31.77"/>
      </g>
    </g>
  </g>
</svg>